<?xml version="1.0" encoding="UTF-8" standalone="no"?><!DOCTYPE svg PUBLIC "-//W3C//DTD SVG 1.1//EN" "http://www.w3.org/Graphics/SVG/1.1/DTD/svg11.dtd"><svg width="100%" height="100%" viewBox="0 0 2816 1536" version="1.1" xmlns="http://www.w3.org/2000/svg" xmlns:xlink="http://www.w3.org/1999/xlink" xml:space="preserve" xmlns:serif="http://www.serif.com/" style="fill-rule:evenodd;clip-rule:evenodd;stroke-linejoin:round;stroke-miterlimit:2;"><path d="M1845.18,910.488c-1.265,6.293 -1.489,6.289 1.317,12.203c21.899,27.001 26.702,70.499 27.42,76.998c0.986,8.931 59.699,50.207 114.001,119.717c11.209,14.348 13.693,11.142 40.9,24.76c9.332,4.671 112.26,53.208 52.017,-15.622c-24.879,-28.426 -23.927,-30.003 -57.589,-47.528c-48.785,-25.398 -84.713,-63.823 -91.005,-70.552c-1.143,-0.767 -2.287,-1.535 -3.43,-2.302c-6.116,-4.258 -26.96,-20.611 -22.783,-22.839c1.54,-0.822 3.266,-1.258 4.807,-2.08c4.534,-9.042 13.639,6.381 30.001,17.934c33.926,23.954 32.39,25.476 65.439,50.507c33.807,25.606 28.934,33.135 63.53,46.03c57.862,21.569 75.88,18.421 84.735,19.726c2.236,0.047 4.473,0.095 6.709,0.142c-2.185,11.93 -7.354,5.436 -20.351,4.909c-55.327,-2.243 -90.609,-35.361 -67.566,-11.481c47.899,49.639 28.824,58.286 23.953,60.016c-22.901,8.129 -93.074,-35.892 -90.243,-28.417c3.348,8.842 27.521,34.09 36.834,71.81c4.636,18.775 -50.331,-8.113 -74.479,-26.471c-20.557,-15.628 8.374,18.301 18.161,50.688c13.946,46.15 -35.255,20.448 -99.6,-35.697c-1.477,-0.905 -1.273,-0.947 -2.877,-1.93c-4.19,-2.567 -6.426,0.62 -6.715,0.648c-14.472,-29.028 -30.851,-24.363 -59.585,-72.615c-3.022,-5.075 -37.462,-62.911 -37.669,-63.508c-5.232,-15.063 12.462,7.394 13.237,8.378c1.958,10.213 36.388,68.085 60.129,91.461c5.614,4.631 5.598,4.785 5.91,4.646c1.664,-0.744 2.315,-3.007 3.979,-3.751c15.184,25.649 15.604,25.641 40.216,42.096c9.085,6.074 15.828,16.411 30.316,21.61c12.051,4.324 11.882,4.825 24.545,5.348c34.023,1.407 -5.173,5.824 -5.833,5.888c-8.584,0.829 5.505,7.382 6.224,7.716c23.63,10.99 24.115,2.868 24.088,0.94c-0.052,-3.748 -20.396,-67.271 -50.409,-86.856c-68.761,-44.87 -149.271,-175.738 -84.501,-94.343c3.626,4.556 8.982,15.339 27.746,35.558c11.746,12.657 86.249,83.859 39.732,29.378c-17.088,-20.013 -48.063,-65.025 -69.806,-81.83c-8.024,-6.202 -6.43,-10.337 -2.792,-9.042c14.376,5.116 46.208,48.288 49.655,52.963c23.124,31.361 26.332,28.841 47.37,62.606c10.237,16.43 96.142,65.872 95.481,53.078c-0.309,-5.972 -31.503,-75.453 -55.313,-84.699c-13.241,-5.142 -74.728,-49.71 -57.645,-49.489c4.821,0.062 1.904,4.958 47.214,37.454c43.235,31.007 -93.677,-104.091 -96.435,-103.874c-5.408,0.426 -6.567,13.445 -35.885,-2.819c-18.778,-10.417 -32.851,-27.022 -29.439,-16.676c14.77,44.783 20.529,46.472 12.449,54.463c-9.098,8.998 -3.232,-4.592 -7.503,-24.139c-0.35,-1.602 -12.47,-35.579 -13.572,-38.667c-3.205,-8.985 -32.248,-39.445 -19.7,-39.407c8.939,0.028 8.403,19.903 31.997,38.147c2.363,1.827 54.086,46.162 54.129,20.76c0.091,-53.566 -29.446,-67.087 -36.087,-91.004c-1.263,-4.547 -22.617,-22.467 -11.559,-22.629c2.716,-0.04 1.278,2.51 26.128,21.687Z" style="fill:#473e34;"/><path d="M183.351,223.528c-1.931,5.028 -2.305,5.45 1.265,9.322c5.346,5.799 5.26,5.564 10.836,11.462c17.808,20.209 44.126,38.682 44.201,38.741c19.249,15.444 19.115,15.466 41.751,24.642c-3.142,3.628 -4.05,4.277 -0.768,7.758c63.615,51.194 218.622,98.672 223.327,112.165c0.265,0.759 -0.142,4.957 -10.03,-0.52c-21.674,-12.006 -132.159,-55.379 -163.293,-72.403c-57.162,-31.257 -50.302,-42.716 -109.993,-68.703c4.784,-2.937 8.049,-3.535 3.889,-7.123c-1.537,-1.326 -1.433,-1.2 -3.078,-2.577c-40.149,-31.404 -37.1,-34.408 -70.068,-73.234c-2.818,-3.319 -30.743,-36.205 -22.262,-49.665c7.277,-11.549 60.683,16.049 64.603,18.711c10.59,7.193 66.108,44.901 140.62,76.389c107.477,45.419 107.378,50.412 132.239,59.591c39.655,14.641 101.706,47.624 126.703,58.061c86.774,36.231 115.374,45.282 125.647,48.534c20.98,9.51 39.134,13.045 82.608,29.746l2.662,0.753c33.191,10.316 34.949,8.904 34.817,11.844c-0.073,1.641 -1.868,2.887 -1.942,4.528c-272.753,-87.201 -302.521,-123.002 -379.08,-149.844c-10.496,-3.68 -9.03,-6.505 -126.545,-57.568c-60.729,-26.388 -132.68,-71.497 -143.782,-78.458c-1.529,-0.959 -53.85,-26.026 -53.356,-15.043c0.617,13.707 26.289,46.188 41.376,57.01c4.004,2.872 3.946,2.683 7.654,5.882Z" style="fill:#392c26;"/><path d="M381.031,517.101c38.614,13.198 72.938,5.037 123.701,17.283c28.598,6.899 28.313,7.449 57.455,12.585c11.014,1.941 8.713,7.064 5.759,7.426c-9.5,1.163 -69.782,-18.232 -132.957,-23.491c-0.678,-0.089 -7.195,-0.948 -8.538,0.282c-2.158,1.976 0.047,3.075 -2.105,5.051c-1.231,1.13 -1.199,-2.017 -2.375,-0.937c-44.998,-14.383 -126.685,-10.668 -225.251,-36.568c-18.221,-4.788 -60.347,-10.397 -45.922,8.256c19.454,25.157 75.523,37.292 103.352,55.71c24.381,16.136 151.593,47.353 170.727,46.47c29.091,-1.341 28.719,-3.383 57.796,-4.707c31.889,-1.452 121.545,2.259 122.017,7.142c0.792,8.185 -5.627,-1.743 -102.782,-1.397c-5.365,0.019 -62.885,0.224 -66.94,3.974c-1.194,1.104 -0.906,3.298 -2.1,4.402c-34.142,-11.653 -35.453,1.964 -126.234,-3.33c-9.94,-0.58 -50.654,-2.331 -55.06,-2.52c-6.03,2.541 -5.9,2.523 -10.963,6.546c-11.523,0.453 -12.022,0.567 -15.817,4.061c-5.744,-2.143 -8.786,-6.572 -8.936,-0.465c-0.14,5.711 2.806,9.092 3.346,9.712c9.588,11.004 11.324,8.379 16.199,6.403c17.496,17.508 31.594,22.369 63.217,29.527c0.522,1.15 -1.121,2.592 -0.599,3.742c1.686,3.714 20.981,7.042 22.471,7.38c6.119,7.917 3.326,8.765 2.593,8.849c-3.08,0.354 -92.795,-33.214 -106.113,-49.993c-18.867,-23.771 1.675,-26.057 34.768,-31.394c16.292,-2.627 48.033,4.833 101.651,3.252c15.196,-0.448 44.997,1.886 30.014,-3.389c-5.934,-2.089 -7.071,2.937 -76.699,-17.333c-48.863,-14.225 -46.436,-19.998 -118.786,-50.709c-4.468,-1.897 -42.107,-17.873 -47.786,-37.388c-9.343,-32.104 78.62,0.17 171.942,11.605c66.088,8.097 66.01,8.124 66.12,8.049c1.367,-0.936 1.463,-3.149 2.83,-4.085Z" style="fill:#4a4038;"/><path d="M565.088,382.649c-4.873,0.352 -4.665,0.836 -8.302,4.057c-25.86,-12.646 -8.02,12.625 6.621,23.117c46.144,33.069 47.012,31.721 50.984,34.643c72.801,53.559 111.863,47.335 118.524,60.131c13.921,26.744 -42.016,-16.973 -93.759,-26.964c-40.269,-7.775 -126.454,-31.032 -93.369,2.333c35.849,36.153 55.24,43.709 82.909,56.917c78.958,37.689 81.374,29.956 115.065,32.323c30.34,2.132 -4.564,5.438 -5.163,5.42c-4.354,-0.718 -4.198,-0.441 -8.515,-1.153c-0.474,-0.078 -0.404,0.186 -5.45,2.509c-13.35,-4.66 -13.039,0.137 -13.875,0.639c-19.105,-5.31 -18.799,-7.822 -38.383,-6.127c5.007,-4.904 5.47,-4.685 5.395,-5.284c0,0 -4.991,-2.545 -5.425,-2.767c-38.541,-14.164 -54.768,-23.85 -82.548,-38.435c-25.15,-13.204 -21.163,-18.239 -38.1,-30.941c-35.33,-26.496 -17.071,-34.335 -14.098,-34.735c38.238,-5.145 72.817,7.896 96.016,12.824c1.144,0.064 1.869,1.59 3.013,1.653c5.989,0.335 2.498,-3.163 2.268,-3.394c-0.487,-0.488 -1.395,-0.369 -1.881,-0.857c-33.406,-18.235 -32.037,-19.958 -62.929,-41.912c-48.392,-34.39 -35.349,-44.369 -35.501,-45.801c-0.674,-6.368 -96.296,-40.296 -178.325,-89.67c-5.183,-3.12 -0.957,-6.925 4.2,-4.038c38.292,21.44 38.767,19.91 77.682,40.336c41.692,21.884 91.045,41.265 98.197,45.242c10.712,5.957 11.412,2.475 21.984,3.622c12.798,1.388 83.834,24.128 84.401,24.534c22.067,15.804 34.746,12.361 63.935,27.292c51.144,26.163 53.246,24.74 53.625,29.626c0.44,5.664 -10.816,-0.398 -11.638,-0.841c-1.397,-0.752 -11.974,-6.449 -17.529,-9.274c-12.981,-6.601 -68.885,-35.03 -170.026,-65.024Z" style="fill:#52463c;"/><path d="M2126.944,614.369c1.818,1.954 3.637,3.908 5.455,5.862c11.543,4.948 57.212,-7.545 59.695,5.553c0.352,1.857 -2.863,8.442 6.512,8.511c17.656,0.13 235.576,-31.272 237.912,-34.123c3.558,-4.342 -2.616,-3.175 -70.165,-0.814c-40.127,1.402 -140.389,20.096 -140.724,18.414c-0.988,-4.957 1.218,-7.155 61.17,-15.808c148.327,-21.409 157.375,2.172 208.852,-17.505c23.616,-9.027 57.879,-12.1 126.264,-47.402c14.991,-7.739 2.909,5.12 2.491,5.337c-95.899,49.796 -175.631,53.408 -123.221,49.603c40.419,-2.935 96.755,-10.621 100.965,8.696c1.619,7.43 -8.292,-1.187 -18.514,-2.683c-4.127,-0.604 -4.401,0.93 -15.835,-3.775c-6.363,-2.619 -6.635,0.674 -85.941,3.424c-37.863,1.313 -37.97,9.11 -88.045,16.48c-200.619,29.528 -201.035,25.902 -206.087,25.922c-15.761,0.062 -19.427,28.014 -112.537,41.763c-8.999,1.329 -8.617,1.835 -17.577,3.029c-18.238,2.43 -17.683,-1.127 -19.474,-1.839c10.831,-6.546 89.133,-5.085 145.779,-50.013c13.318,-10.563 -9.022,-4.531 -73.277,-6.275c-41.225,-1.119 -41.238,-1.349 -74.425,5.873c-0.672,0.146 -15.097,3.285 -7.721,-3.791c9.828,-9.429 57.807,-9.023 62.889,-8.98c27.851,0.236 27.81,0.497 30.164,-0.033c0.597,-0.134 -0.325,-1.172 5.394,-5.425Z" style="fill:#463c35;"/><path d="M932.912,822.368c24.018,-10.694 39.098,-25.575 36.025,-15.324c-1.099,3.667 -42.527,26.575 -70.056,91.136c-7.391,17.334 37.551,-4.526 59.731,-19.159c14.097,-9.301 14.845,-8.03 26.931,-19.989c0.973,-0.962 14.359,-14.207 14.998,-8.227c1.021,9.553 -37.549,20.485 -60.609,97.064c-3.747,12.442 -4.578,20.686 7.3,15.53c7.064,-3.066 45.216,-22.617 47.303,-29.609c1.434,-4.805 -0.165,-14.473 19.065,-27.345c44.78,-29.976 -22.771,28.597 -35.328,76.749c-2.179,8.357 -15.581,30.413 7.724,25.293c47.351,-10.404 98.19,-86.491 97.543,-66.783c-0.152,4.645 -8.172,-0.359 -33.082,47.758c-3.57,6.896 -27.663,64.715 -17.717,63.97c38.311,-2.871 77.149,-67.216 58.063,-31.508c-1.653,3.093 -29.213,33.112 -50.066,37.301c-22.709,4.561 -11.212,19.553 -77.189,77.454c-8.93,7.837 -9.101,7.332 -18.06,15.06c-1.026,-2.128 -2.053,-4.256 -3.079,-6.384c22.247,-10.819 83.283,-78.335 81.783,-87.942c-5.457,-34.962 46.12,-105.383 19.143,-77.501c-38.386,39.674 -88.334,49.398 -76.117,14.454c14.307,-40.922 21.87,-46.328 15.866,-43.765c-6.25,2.668 -56.926,41.163 -51.255,7.991c6.659,-38.945 22.034,-59.775 30.734,-71.669c-0.474,-0.863 -0.949,-1.725 -1.423,-2.588c-57.583,37.304 -64.985,23.932 -71.565,29.337c-12.127,9.962 1.113,-5.164 3.913,-23.095c20.56,-31.531 17.61,-33.448 42.907,-61.448c-0.01,-1.779 1.841,-0.774 1.831,-2.538c-0.003,-0.543 -0.383,-0.304 -5.314,-4.221Z" style="fill:#3d332b;"/><path d="M2638.621,163.697c3.471,-2.007 41.934,-24.247 43.918,-24.139c23.665,1.292 -158.185,89.526 -191.592,110.484c-76.245,47.834 -150.612,71.75 -201.588,97.799c-90.565,46.279 -94.638,36.063 -101.909,40.999c-13.03,8.846 -118.788,47.234 -176.053,62.528c-14.787,3.949 -102.504,27.377 -177.644,71.008l-0.878,-5.37l2.75,-1.606c2.709,-2.127 2.797,-1.888 22.094,-12.253c22.543,-11.371 25.685,-12.725 27.974,-13.711c89.486,-38.542 92.82,-35.73 123.447,-44.507c140.773,-40.342 143.188,-56.522 164.694,-58.705c1.36,-0.182 5.336,-0.713 16.433,-4.928c0.963,-0.004 1.926,-0.007 2.889,-0.011c6.611,-2.031 35.556,-10.922 80.04,-32.664c90.983,-44.47 129.552,-55.445 185.952,-87.327c137.686,-77.833 140.084,-79.595 151.367,-87.887c1.595,0.934 0.788,4.072 2.383,5.006c2.348,1.375 3.611,-2.837 8.088,-4.648c9.505,-3.846 16.64,-9.427 17.636,-10.067Z" style="fill:#332823;"/><path d="M2207.098,822.592c35.678,13.466 35.762,12.45 60.314,16.59c-0.591,0.657 -2.034,-1.024 -2.624,-0.367c-0.44,0.489 -0.757,6.318 -0.358,6.929c0.615,0.942 2.166,0.97 2.78,1.912c16.747,4.324 148.053,60.63 16.741,59.182c-4.893,-0.054 -8.807,3.5 -11.224,3.909c-43.735,7.393 -112.477,-15.645 -119.051,-15.945c-1.099,0.452 -1.119,2.338 -2.218,2.79c-0.449,0.185 -18.624,-11.932 -12.588,-2.652c1.972,3.032 4.708,-0.693 37.665,25.02c8.107,7.266 46.741,38.833 41.605,44.13c-5.883,6.067 0.674,-12.205 -83.319,-64.942c-23.136,-14.527 -22.622,-14.822 -26.05,-18.331c-0.626,-2.603 -1.252,-5.206 -1.878,-7.809c-1.261,-1.212 -2.521,-2.423 -3.782,-3.635c-7.735,-3.412 -7.499,-3.603 -11.686,-4.805c-10.456,-3.325 -10.496,-2.161 -12.632,-1.673c-1.305,1.576 -2.611,3.151 -3.916,4.727c-76.812,-30.768 -100.273,-60.427 -76.89,-47.014c32.53,18.659 31.335,21.712 71.094,31.692c13.602,3.414 40.973,13.429 44.494,14.718c79.307,19.444 78.199,24.388 159.308,32.741c5.886,0.606 73.963,4.225 56.694,-11.852c-18.619,-17.332 -32.08,-19.801 -78.446,-42.877c-13.52,-6.729 -56.966,-14.18 -61.234,-15.021c1.36,-1.095 1.01,-3.577 2.37,-4.672c0.399,-0.321 8.694,1.53 9.23,1.29c2.101,-0.94 3.502,-3.094 5.602,-4.034Z" style="fill:#483f36;"/><path d="M2666.297,194.051c28.747,-38.27 17.476,-43.159 19.915,-46.377c6.046,-7.974 10.086,13.402 -1.458,32.026c-17.124,27.627 -42.165,51.178 -46.363,55.126c-4.729,4.447 -7.107,-1.236 -10.929,2.843c-0.213,0.227 -0.209,0.133 -2.861,2.634c-1.48,1.396 -1.298,1.154 -2.848,2.694c-32.729,32.524 -80.314,66.144 -40.568,42.307c53.288,-31.958 55.645,-26.928 118.148,-60.776c76.389,-41.367 15.841,34.28 10.327,43.319c-19.991,32.773 -174.671,122.638 -178.22,118.512c-0.854,-0.993 0.193,-2.88 -0.661,-3.873c176.138,-96.639 179.175,-127.468 188.09,-138.716c1.236,-1.559 23.301,-29.397 5.506,-24.248c-5.998,1.736 -60.363,32.209 -121.188,60.118c-55.078,25.272 -83.673,47.907 -90.241,53.106c-34.885,27.615 -143.841,82.936 -152.045,86.211c-0.696,-0.795 -1.393,-1.59 -2.089,-2.385c3.957,-7.581 106.154,-56.045 147.794,-85.209c0.601,-1.134 2.109,-1.6 2.709,-2.734c0.283,-0.534 -0.253,-0.48 -3.524,-6.685c7.557,-4.273 39.53,-16.214 53.03,-29.137c40.12,-38.406 51.269,-41.902 95.893,-93.788c6.915,3.572 7.77,1.817 11.58,-4.97Z" style="fill:#423832;"/><path d="M2552.928,476.223l3.197,3.986c2.149,-0.879 4.297,-1.758 6.446,-2.637c10.946,4.369 86.996,-16.46 111.858,-15.303c32.889,1.531 -9.676,32.794 -13.71,36.952c-38.579,39.76 -161.496,80.027 -206.312,87.745l-3.067,-2.819c3.585,-1.713 59.61,-15.494 126.887,-43.57c30.321,-12.653 41.033,-14.181 89.776,-56.235c0.987,-0.852 20.075,-17.32 3.623,-15.887c-57.083,4.973 -56.112,11.118 -115.451,17.113c-26.258,2.653 -103.889,44.809 -228.154,70.565c-0.65,-0.747 -1.3,-1.493 -1.949,-2.24c2.709,-5.25 4.027,-3.856 70.648,-21.48c8.6,-2.275 64.147,-16.97 105.819,-34.174c29.402,-12.138 -8.642,-1.611 -39.921,3.566c-109.345,18.1 -197.096,58.715 -200.749,57.835c-12.237,-2.947 27.058,-16.676 29.662,-17.586c191.091,-66.765 216.111,-42.267 261.396,-65.831Z" style="fill:#4b413a;"/><path d="M700.805,633.251c4.422,2.147 3.785,2.73 7.338,6.358c-50.987,11.323 -55.111,6.405 -54.453,10.797c2.656,17.739 54.758,31.003 60.046,32.35c70.448,17.936 112.697,11.044 114.756,12.491c11.604,8.156 13.177,4.194 14.033,5.024c13.027,12.64 -50.27,-3.003 -71.011,3.412c-2.352,-1.6 -4.704,-3.199 -7.056,-4.799c-45.72,-6.651 -64.48,-12.378 -88.644,-22.028c-21.026,-8.396 -108.153,7.499 -118.954,9.152c-102.658,15.715 25.857,8.501 65.983,5.213c29.311,-2.401 36.499,-7.279 52.702,-8.048l1.148,2.345c-0.362,0.242 -4.522,3.028 -4.522,3.028c-61.654,19.871 -141.794,7.142 -205.921,14.837c-0.81,-0.423 -1.882,0.942 -2.691,0.519c-3.041,-1.59 -2.496,-5.567 -14.267,-2.563c-0.787,-7.38 -4.848,-3.327 -57.364,-10.133c-35.96,-4.66 -36.066,-2.778 -71.43,-11.572c-1.49,-0.338 -20.784,-3.665 -22.471,-7.38c-0.522,-1.15 1.121,-2.592 0.599,-3.742c66.482,15.013 66.537,13.831 134.356,21.629c55.225,6.35 55.173,2.476 109.839,-8.05c90.66,-17.456 111.649,-12.125 115.665,-12.86c3.542,-0.648 -0.389,-4.089 -0.652,-4.319c-36.296,-31.765 34.234,-24.357 41.648,-28.741c0.921,-0.545 0.404,-2.379 1.326,-2.924Z" style="fill:#40362d;"/><path d="M2404.857,323.27c1.787,1.955 1.783,1.817 1.61,4.359c-2.469,1.372 -100.207,50.771 -108.542,53.655c-8.352,2.89 -5.426,6.231 -12.26,12.026c-47.247,40.06 -69.957,60.254 -155.459,97.99c1.144,-0.07 1.272,2.517 2.416,2.447c3.004,-0.183 143.437,-53.216 154.041,-52.635c8.401,0.46 8.495,2.845 6.718,10.35l-3.335,-1.352c-1.179,-0.557 0.433,-3.284 -0.747,-3.841c-5.615,-2.652 -13.862,5.893 -123.718,41.722c-26.691,8.705 -26.156,9.524 -52.237,19.298c-7.905,2.962 -7.392,-3.724 -11.088,-3.817c-1.83,-0.046 -3.566,0.874 -5.385,1.072c-6.008,0.653 -6.187,-5.35 -3.223,-6.146c98.951,-26.585 218.107,-128.544 184.804,-117.234c-99.949,33.944 -99.199,35.625 -165.275,59.55c-16.993,6.153 -50.795,28.893 -41.222,14.262c0.096,-0.146 23.641,-15.957 55.196,-27.261c82.272,-29.473 82.931,-28.324 99.047,-41.135c4.023,6.26 7.491,4.653 29.628,-4.094c11.819,-4.67 29.581,-13.738 36.097,-6.882c3.937,4.143 73.475,-36.841 112.934,-52.334Z" style="fill:#433932;"/><path d="M1857.719,503.146c-19.297,10.366 -19.384,10.126 -22.094,12.253l-2.75,1.606l0.878,5.37c-2.968,1.449 -2.877,1.499 -15.242,8.524c-33.935,19.28 -56.285,63.059 -59.701,81.008c-2.811,14.772 -9.868,12.567 -8.38,19.215c1.911,8.539 1.213,8.571 -1.899,16.75c-5.074,13.335 -28.735,75.524 -81.838,158.453c-6.429,10.04 -70.384,54.012 -95.323,60.532c-11.078,0.72 -10.798,0.5 -21.764,1.415c-25.514,2.129 -64.178,-11.065 -66.164,-14.26c-7.227,-11.628 23.327,4.602 38.661,5.994c56.619,5.141 73.676,-6.635 115.199,-42.337c1.469,-0.213 2.188,2.757 3.657,2.544c1.684,-0.245 6.711,-4.593 7.245,-5.055c1.298,-1.123 15.378,-13.302 15.044,-15.286c-0.341,-2.032 -3.883,-2.479 -4.225,-4.511c7.439,-7.438 41.348,-41.341 65.083,-114.26c21.67,-66.574 37.809,-94.838 38.781,-97.305c22.222,-56.382 126.178,-108.471 127.776,-108.925c22.198,-6.309 -31.987,22.594 -33.198,24.197c-0.821,1.087 1.073,2.991 0.253,4.078Z" style="fill:#352c26;"/><path d="M264.994,384.45c6.171,4.267 6.07,4.349 6.665,4.608c0,0 4.476,-2.719 4.865,-2.955c2.9,1.807 5.704,7.023 36.124,15.809c0.113,5.695 0.085,5.957 4.807,9.368c83.357,46.566 183.746,74.84 184.002,79.715c0.359,6.852 -4.43,1.323 -82.034,-25.025c-15.125,-5.135 -66.027,-29.819 -71.696,-32.567c-51.23,-24.842 -48.118,-31.34 -71.893,-37.806c-47.161,-12.827 -47.177,-11.783 -93.562,-27.233c-1.914,-0.637 -95.144,-21.488 -96.882,-15.65c-4.043,13.581 42.967,47.659 47.476,50.928c13.981,11.365 15.397,5.28 17.087,4.499c5.726,5.93 2.95,9.109 10.939,11.144c11.996,3.057 13.717,12.224 35.983,21.523c7.211,3.012 62.468,26.089 91.042,35.421c-0.242,0.33 -3.022,4.128 -3.022,4.128c-11.025,-1.209 -12.851,-9.03 -19.65,-0.219c-3.28,-1.785 -23.956,-13.034 -41.436,-21.485c-12.275,-5.934 -14.73,-2.709 -51.438,-23.552c-101.654,-57.718 -109.441,-95.364 -77.472,-90.107c66.159,10.88 88.961,17.896 164.968,41.496c4.814,1.495 4.325,-1.722 5.126,-2.041Z" style="fill:#483e38;"/><path d="M776.963,952.945c-3.046,3.406 -7.846,1.957 -4.753,5.315c0.939,1.019 1.126,-0.807 2.183,-0.048c2.177,1.563 1.03,2.355 3.038,3.796c-23.537,9.071 -29.377,10.343 -44.271,18.797c-66.17,37.556 -90.61,79.048 -95.895,88.02c-7.195,12.214 12.709,11.12 20.233,6.425c12.188,-7.605 71.763,-5.362 116.281,-43.322c1.301,1.129 -0.096,8.813 11.164,2.882c134.004,-70.58 144.507,-102.702 142.908,-87.45c-0.832,7.932 -63.403,49.985 -69.229,53.9c-51.968,34.925 -102.815,48.459 -119.745,65.144l-2.332,-4.408c-12.96,-2.086 -11.138,7.589 -39.33,12.555c-33.776,5.95 -83.846,24.521 -63.955,-12.03c23.632,-43.425 62.513,-62.671 74.603,-71.323c0.407,-0.42 5.088,-5.246 5.088,-5.246c-0.243,-1.575 -2.584,-2.279 -2.827,-3.854c65.22,-22.074 160.064,-106.592 157.857,-89.595c-0.264,2.03 -55.623,39.498 -70.224,48.177c-4.669,2.775 -9.509,5.252 -14.206,7.978c-0.544,0.316 -0.488,0.318 -6.589,4.286Z" style="fill:#2f241c;"/><path d="M1973.537,893.255l2.364,-0.583c22.141,7.08 87.48,59.251 121.04,62.293c7.898,0.716 23.197,14.354 55.128,21.943c9.168,2.179 47.169,12.716 60.272,8.626c0.65,-0.203 32.694,-10.206 8.284,1.973c-9.929,4.954 18.618,5.32 21.497,0.192c7.342,-13.077 -59.97,-69.846 -63.112,-69.946c-1.104,-0.035 -1.37,2.241 -2.475,2.205c-32.957,-25.713 -35.693,-21.987 -37.665,-25.02c-6.036,-9.28 12.139,2.837 12.588,2.652c1.099,-0.452 1.119,-2.338 2.218,-2.79c4.606,5.449 76.6,46.522 93.363,83.257c4.296,9.414 -1.792,25.292 -29.063,18.284c-20.566,-5.285 -28.58,-0.888 -74.273,-15.039c-0.409,-0.027 -5.108,-0.338 -5.108,-0.338c-0.37,0.422 0.351,0.347 4.982,4.935c3.305,2.352 22.29,15.862 38.435,33.077c2.47,2.634 25.3,26.977 28.24,35.209c7.035,19.702 -26.433,14.735 -44.493,13.268c-15.303,-1.243 -36.15,-13.641 -41.824,-10.047c-3.179,-4.476 -2.726,-4.441 -4.037,-9.531c6.428,2.032 75.448,23.854 83.499,11.395c4.72,-7.304 -70.796,-80.178 -87.679,-86.133c-11.422,-4.029 -38.699,-11.396 -55.539,-18.92c-0.713,-5.379 0.424,-6.119 -4.499,-9.643c-5.728,-3.684 -7.002,-1.331 -73.966,-42.148c-6.782,-4.134 -7.478,-3.953 -8.179,-9.173Z" style="fill:#3b3128;"/><path d="M449.29,701.341c11.771,-3.005 11.226,0.973 14.267,2.563c0.81,0.423 1.882,-0.942 2.691,-0.519c-57.259,16.083 -180.508,17.869 -153.93,37.515c20.262,14.978 22.232,11.961 30.006,11.454c-0.264,0.446 -3.302,5.574 -3.302,5.574c0.722,0.715 0.85,0.391 11.538,5.309c21.892,5.664 21.94,4.604 44.266,9.195c18.58,3.821 18.178,-0.141 21.685,-3.221c33.579,9.232 101.47,14.989 142.842,1.323c0.16,0.12 0.303,4.568 5.502,4.137c0.434,-0.036 0.403,0.013 5.443,0.171l5.816,-0.605c135.305,-17.776 135.349,-41.765 142.466,-32.492c3.137,4.087 -15.908,9.689 -18.608,10.688c-103.629,38.341 -125.126,18.838 -184.225,36.407c-1.793,-1.619 0.083,-5.924 -11.182,-5.619c-17.638,0.477 -17.601,0.754 -19.133,0.728c-140.69,-2.394 -159.358,-25.298 -178.296,-38.228c-22.801,-15.568 20.887,-28.929 32.423,-30.017c101.469,-9.57 100.893,-13.845 109.731,-14.362Z" style="fill:#352a22;"/><path d="M891.945,1112.349c-1.635,4.461 -1.977,4.205 -1.468,9.15c-36.953,24.962 -79.115,94.504 -74.31,97.895c8.964,6.326 102.651,-51.718 108.003,-58.448c7.8,-9.808 5.423,-11.639 68.121,-83.523c0.736,-0.844 12.601,-14.447 12.51,-6.266c-0.049,4.394 -48.078,53.013 -62.393,74.197c1.026,2.128 2.053,4.256 3.079,6.384c-17.374,14.324 -30.478,20 -61.241,87.194c-4.955,10.823 -10.474,14.429 0.478,18.905c-0.185,0.206 1.66,2.031 -5.726,4.683c-10.943,-3.486 -12.551,-13.706 15.187,-57.81c6.907,-10.982 7.239,-10.429 14.279,-21.021c8.604,-12.945 -5.305,1.495 -45.995,23.032c-5.992,3.171 -64.396,42.537 -52.522,4.681c5.373,-17.13 43.843,-62.944 44.075,-63.287c0.301,-0.439 3.757,-5.484 3.757,-5.484c-0.147,-1.483 -1.999,-2.438 -2.145,-3.921c20.154,-12.022 17.981,-14.378 52.774,-51.591c49.486,-52.928 83.399,-69.977 65.853,-52.229c-3.936,3.981 -4.831,2.968 -51.867,46.98c-21.785,20.385 -24.714,24.668 -30.45,30.48Z" style="fill:#3d332a;"/><path d="M1130.375,1177.548c-2.528,3.602 -2.325,3.557 -7.178,11.699c-2.045,3.553 -16.444,34.893 -54.771,68.925c-1.745,1.55 -28.609,25.403 -28.664,5.434c-0.074,-26.972 7.155,-41.819 6.972,-44.112c-0.875,-10.941 -11.156,15.523 -54.25,42.708c-14.647,9.239 -51.858,46.021 -38.35,-6.48c5.027,-19.539 11.566,-18.972 6.743,-33.77c0.474,-0.318 5.923,-3.973 5.923,-3.973c1.555,-0.006 2.235,2.726 3.79,2.72c-3.583,15.063 -2.646,15.206 -8.551,29.627c-5.412,13.217 -7.473,32.491 3.265,23.343c16.135,-13.747 18.404,-10.145 34.478,-23.599c54.082,-45.265 57.749,-59.559 59.522,-66.474c0.596,0.968 0.974,2.06 1.57,3.028c3.211,5.217 3.89,0.546 7.796,-4.197l1.93,-1.95c31.742,-39.462 49.921,-89.607 54.291,-81.315c2.1,3.986 -32.845,70.732 -60.976,96.55c-13.351,12.253 -26.483,79.957 -7.565,64.175c48.85,-40.754 57.637,-66.662 79.675,-106.996c14.29,-26.153 25.184,-56.023 27.445,-45.676c1.383,6.325 -21.126,47.703 -33.093,70.333Z" style="fill:#3c3129;"/><path d="M2074.721,721.417c1.051,1.594 -1.178,1.801 -0.092,3.448c0.125,0.189 0.329,0.499 2.763,0.603c71.184,3.024 95.708,5.947 201.158,42.716c11.113,3.875 40.931,2.081 38.322,-2.304c-0.043,-0.073 -24.44,-2.453 -26.513,-4.086c-0.67,-0.528 -2.726,-5.916 9.963,-3.788c30.055,5.041 29.896,5.517 60.547,5.734c95.486,-1.766 110.787,-20.398 115.555,-14.396c10.884,13.7 -117.004,19.528 -165.103,24.521c-39.372,4.087 118.652,25.046 126.954,35.73c11.305,14.549 -7.588,-1.747 -80.217,-12.98c-43.843,-6.781 -41.392,-17.244 -85.371,-21.628c-3.116,-4.263 -3.357,-3.879 -8.313,-5.893c-40.027,-10.737 -72.341,-28.83 -153.786,-35.908c-31.587,-2.745 -35.17,3.498 -43.952,-9.381c2.696,-0.796 5.391,-1.593 8.087,-2.389Z" style="fill:#5b5146;"/><path d="M2746.081,333.858c-1.842,1.034 -3.684,2.069 -5.526,3.103c-1.387,-0.896 -1.37,-3.219 -2.757,-4.115c-1.807,-1.168 -16.165,5.224 -16.596,6.848c-1.636,6.155 5.446,11.694 -27.767,40.6c-2.398,-8.434 1.119,-7.913 13.305,-21.913c0.885,-1.016 20.476,-23.525 -2.36,-16.675c-192.626,57.778 -211.146,68.464 -227.834,78.094l-2.92,-2.142l-2.75,0.236l-2.75,-0.078c-5.293,2.289 -17.747,6.447 -19.304,6.967c-36.437,14.374 -90.554,38.205 -134.219,58.421l-5.487,2.74c-3.058,0.748 -6.116,1.496 -9.174,2.243c3.108,-8.806 19.135,-13.615 57.734,-31.341c114.809,-52.726 120.32,-40.734 167.792,-71.225c3.295,5.095 3.113,5.226 3.558,5.503c0.221,0.137 83.283,-29.235 126.356,-42.273c56.85,-17.208 57.722,-13.933 62.483,-15.92c14.958,-6.244 17.574,-11.169 28.217,0.926Z" style="fill:#312621;"/><path d="M507.517,791.374c-65.465,17.739 -155.788,28.992 -99.242,46.414c75.345,23.214 127.66,8.409 187.077,2.059c16.828,-1.799 93.258,-52.92 178.873,-73.439c12.789,-3.065 14.583,3.712 10.69,4.517c-9.027,1.866 -60.536,12.516 -108.926,37.565c-41.852,21.666 -46.795,18.566 -47.39,29.412c-18.839,2.438 -18.455,3.534 -35.536,11.398c-1.202,-0.591 -1.548,-7.443 -14.629,1.373c-0.414,-0.203 -0.797,-3.14 -5.035,-2.47c-36.565,5.78 -100.43,18.092 -173.04,-6.204c-19.989,-6.689 -20.346,-24.947 5.261,-32.142c30.194,-8.484 86.04,-20.179 93.561,-21.755c6.971,-1.46 5.846,2.295 8.336,3.272Z" style="fill:#483e35;"/><path d="M746.643,866.72c4.997,4.675 4.798,5.029 5.388,5.041c1.035,0.021 1.815,-1.256 2.85,-1.235c70.262,-25.531 66.613,-33.702 85.093,-39.464c35.824,-11.169 -46.293,36.37 -93.729,49.069c-33.327,8.922 -29.331,16.385 -71.372,42.022c-66.572,40.597 -61.501,63.096 -68.539,63.097c-2.571,0 -6.469,-4.35 -9.105,5.935c-4.13,16.111 65.277,1.95 72.278,-0.504c13.78,1.544 22.108,-3.447 24.862,-4.784c1.501,-0.37 1.299,0.006 2.748,-0.351c1.045,-0.258 0.964,-0.255 13.008,-3.448c0.243,1.575 2.584,2.279 2.827,3.854c0,0 -4.681,4.826 -5.088,5.246c-0.33,-0.123 -1.063,-3.317 -5.126,-1.918c-4.724,1.627 -37.726,16.343 -99.103,15.124c-2.645,-0.053 -32.504,-2.368 1.892,-33.014c21.873,-19.488 42.9,-50.953 85.679,-71.209c0.689,-0.326 0.607,-0.36 8.191,-4.866c1.028,-0.167 6.84,-1.113 12.154,-4.661c2.226,-1.486 2.108,-2.391 2.073,-2.659c-0.402,-3.072 -2.664,-1.855 -3.063,-4.901c18.743,-6.533 17.152,-9.667 36.082,-16.375Z" style="fill:#52483e;"/><path d="M718.939,414.68c2.833,-3.818 3.288,-8.537 22.165,-0.741c54.182,22.378 60.795,18.937 90.579,33.278c45.694,22.001 47.033,18.001 96.152,30.998c60.192,15.926 122.165,65.306 132.055,81.518c0,0 -3.201,7.97 -3.479,8.663c-8.339,-9.542 -7.631,-9.724 -15.924,-19.545c-8.889,-10.526 -10.783,-4.968 -11.755,-4.808c-39.908,-43.828 -119.603,-64.545 -131.015,-67.511c1.732,1.561 0.469,3.571 19.689,10.753c26.301,9.828 27.465,8.897 27.943,11.653c2.513,14.481 -32.368,-13.96 -108.264,-37.388c0.073,-1.641 1.868,-2.887 1.942,-4.528c0.132,-2.939 -1.626,-1.527 -34.817,-11.844c-1.068,-1.767 1.115,-1.959 0.061,-3.702c-1.477,-2.442 -0.78,0.845 -2.723,2.949c-43.474,-16.701 -61.628,-20.236 -82.608,-29.746Z" style="fill:#675b50;"/><path d="M2327.932,690.414c55.13,5.191 69.774,1.634 74.191,1.031c3.894,3.764 3.076,5.105 10.931,6.291c56.497,-0.309 169.078,-6.312 90.228,33.866c-23.565,12.007 -103.533,26.844 -104.053,26.214c-0.845,-1.023 0.454,-2.939 -0.39,-3.962c4.925,-1.686 53.085,-12.848 57.712,-13.92c44.74,-10.369 53.542,-20.379 60.872,-23.915c24.1,-11.626 -37.623,-12.773 -41.064,-12.837c-41.471,-0.77 -41.376,1.36 -82.605,-2.109c-32.681,-2.749 -197.363,10.899 -203.244,1.428c-3.307,-5.327 9.991,-4.586 10.936,-4.534c8.842,0.493 77.127,4.298 110.695,0.235c3.762,-0.455 2.597,-1.954 4.681,-3.522c3.703,-1.422 7.407,-2.844 11.11,-4.266Z" style="fill:#463b33;"/><path d="M1747.446,1079.431c6.936,1.026 8.535,-1.039 11.341,5.331c13.688,31.07 14.404,30.709 15.549,33.427c2.104,4.996 18.586,44.123 26.769,62.252c13.989,30.99 74.733,69.698 89.331,75.625c9.052,3.675 4.271,-3.189 4.087,-6.242c-0.942,-15.633 -7.719,-24.459 -16.157,-48.164c0.289,-0.028 2.525,-3.215 6.715,-0.648c1.604,0.983 1.4,1.025 2.877,1.93c-1.077,2.983 -2.382,2.932 -0.735,5.796c7.527,13.09 10.985,27.665 11.582,30.181c0.262,1.106 11.805,19.207 -0.108,24.128c-12.753,5.268 -57.958,-31.23 -63.176,-35.033c-13.748,-10.019 -23.592,-27.702 -19.37,-11.132c0.812,3.187 19.565,76.795 -15.822,37.944c-1.715,-1.973 -3.43,-3.946 -5.144,-5.919c-21.443,-25.438 -21.956,-24.84 -41.823,-51.39c-6.662,-7.977 -5.864,-8.215 -14.988,-23.752c-1.729,-2.945 -5.338,-5.189 -5.575,-8.596c-0.14,-2.012 4.855,-1.778 4.716,-3.789c9.523,15.535 9.567,15.479 10.375,16.839c19.714,33.143 60.945,79.249 65.737,79.785c1.961,0.219 4.275,-0.605 0.191,-24.661c-3.927,-23.128 -7.791,-36.892 -26.109,-57.092c6.165,-7.523 3.008,-8.463 -1.374,-17.192c-23.102,-48.048 -28.022,-61.974 -28.409,-62.859c-3.863,-8.831 -4.302,-8.707 -10.513,-11.855c0.011,-1.638 0.023,-3.276 0.034,-4.914Z" style="fill:#41372e;"/><path d="M2290.047,450.11l3.335,1.352c-0.34,8.125 -2.532,7.265 -5.765,14.777c-1.976,4.592 1.656,7.27 -29.128,37.974c-2.778,3.104 -2.518,2.955 -4.729,6.166c-26.063,18.232 -24.412,20.655 -54.825,36.013c-2.891,1.745 -5.311,2.168 -2.413,4.089c0,0 4.463,-0.222 4.851,-0.241c10.897,-1.76 37.091,-7.018 46.654,-7.856c12.236,-1.073 17.153,18.44 -32.437,43c-61.458,30.439 -63.432,25.125 -82.474,32.624c-0.725,0.285 0.008,1.939 -0.717,2.224c-1.818,-1.954 -3.637,-3.908 -5.455,-5.862c10.505,-3.275 109.262,-34.063 122.426,-62.706c3.271,-7.118 -10.125,-0.078 -48.1,4.164c-25.708,2.872 -26.239,1.468 -49.248,13.097c-1.424,-2.958 0.971,-6.646 -6.024,-5.731c-42.184,5.522 -56.557,20.365 -60.172,18.562c-1.213,-0.605 -1.569,-2.361 -2.783,-2.966c34.016,-23.986 80.806,-18.417 101.694,-30.493c31.831,-18.402 52.777,-26.416 93.027,-74.262c1.244,-1.479 3.996,-13.67 12.282,-23.925Z" style="fill:#3f342c;"/><path d="M865.148,1060.423c1.055,-0.445 1.395,2.853 2.451,2.408c6.323,-2.665 65.249,-47.202 84.348,-67.196c4.536,-4.749 7.397,1.172 2.665,5.725c-50.817,48.904 -93.778,71.267 -102.852,75.991c-34.431,17.923 -83.521,71.212 -88.133,76.782c-17.235,20.814 -21.397,35.509 -23.063,27.296c-4.034,-19.89 77.021,-83.623 58.243,-75.023c-24.102,11.038 -21.241,17.263 -68.314,31.601c-1.957,-4.337 -4.201,-5.104 -1.078,-6.858c1.927,-1.082 1.784,-0.855 3.807,-1.825c1.022,-0.016 0.512,2.672 1.535,2.656c14.856,-0.24 52.086,-24.379 56.279,-27.097c54.475,-27.9 54.028,-33.218 62.096,-40.112c1.627,0.248 1.967,3.136 3.593,3.384c0.904,0.138 1.956,0.298 8.424,-7.731Z" style="fill:#484037;"/><path d="M1132.556,726.66c15.504,2.631 20.429,38.989 65.204,85.836c11.427,11.956 14.199,17.599 19.62,14.943c8.408,-4.12 52.024,51.611 103.782,38.975c13.684,-3.341 25.7,-11.152 27.741,-12.478c8.646,-5.621 6.929,5.345 0.372,8.85c-14.715,7.865 -16.062,4.493 -30.443,13.415c-9.815,6.09 -56.166,-6.248 -92.834,-31.618c-20.577,-14.237 -29.488,-23.137 -42.092,-37.484c-19.197,-21.853 -15.913,-26.504 -27.581,-28.744l-3.978,2.33c-0.728,-1.092 -1.457,-2.184 -2.185,-3.276c6.563,-11.081 2.034,-11.659 -5.17,-22.172c0.661,-0.697 2.147,0.056 2.808,-0.64c1.368,-1.443 -4.798,-10.268 -5.242,-10.526c-0.974,-0.566 -2.404,0.673 -3.377,0.107c-3.022,-5.42 -1.74,-5.793 -4.81,-11.301c-1.738,-3.118 -2.665,-1.976 -2.744,-2.248c-0.38,-1.305 1.312,-2.664 0.931,-3.969Z" style="fill:#3b332d;"/><path d="M1560.936,1066.272c2.608,3.049 3.981,2.475 9.814,27.046c9.368,39.456 9.806,39.106 24.738,77.081c0.777,1.975 14.433,36.706 19.018,18.501c2.539,-10.083 -0.21,-11.354 7.166,-18.937c0.86,1.845 1.72,3.689 2.581,5.534c-0.471,1.444 -3.194,1.263 -3.664,2.707c-0.172,0.529 1.124,8.776 -1.827,16.827c-0.989,2.699 -12.739,17.62 -28.679,-21.649c-8.886,-21.891 -7.802,-22.11 -16.674,-44.126c-3.95,-9.802 -5.615,9.125 -15.7,5.838c-3.797,-1.237 -6.088,-1.984 -26.56,-42.267c-14.69,-28.905 -8.098,-32.242 -27.946,-57.657c-2.65,-3.393 2.684,-9.82 10.139,0.56c1.829,2.546 22.828,39.28 30.176,60.363c0.851,2.44 17.87,51.268 20.995,24.554c2.592,-22.155 1.208,-22.093 -4.418,-43.829c-1.448,-5.596 -2.898,-6.103 0.843,-10.545Z" style="fill:#3d352f;"/><path d="M992.019,1185c86.235,-96.644 73.536,-109.908 84.653,-110.892c9.05,-0.801 -9.687,24.603 -21.069,41.672c-57.743,86.599 -74.216,75.009 -85.013,104.92c-1.555,0.006 -2.235,-2.726 -3.79,-2.72c0,0 -5.449,3.655 -5.923,3.973c-46.777,39.115 -73.047,61.35 -81.879,40.567c3.955,1.083 3.747,1 7.821,1.583c8.789,-1.66 8.958,-0.835 16.838,-5.459c2.351,-1.379 16.089,-7.714 13.913,-11.523c-3.5,-6.129 -0.208,-6.129 5.839,-9.835c0.286,-0.175 45.229,-18.343 59.227,-51.003l3.884,0.343c0.763,-0.087 1.045,1.515 1.808,1.429c0,0 3.395,-2.81 3.69,-3.054Z" style="fill:#352b24;"/><path d="M764.458,698.885c2.352,1.6 4.704,3.199 7.056,4.799c-2.394,0.902 -29.879,11.255 -29.926,11.274c-27.492,11.301 16.195,23.597 49.034,26.207c84.842,6.743 132.847,-18.511 134.344,-18.063c14.113,4.221 -35.426,17.291 -51.433,27.125c-25.659,15.763 -29.743,13.714 -38.715,37.331c-2.212,0.009 -4.423,0.019 -6.635,0.028c5.285,-20.395 22.66,-31.226 25.49,-32.991c1.163,-0.725 26.378,-13.008 8.347,-9.551c-75.222,14.42 -197.663,-15 -101.587,-42.327c0.428,-0.122 0.298,-0.284 4.025,-3.832Z" style="fill:#3d332a;"/><path d="M1914.579,816.726l-1.954,2.424c-1.708,3.999 0.295,3.71 4.909,10.162c2.839,3.445 24.294,29.481 30.529,46.712c0.957,2.644 19.466,53.795 -29.748,18.724c-16.238,-11.572 -0.134,7.323 5.603,19.486c16.624,35.244 -5.111,30.461 -11.322,32.933c-0.426,0.169 -2.544,5.138 -10.515,1.831c-51.818,-21.498 -48.088,-30.816 -52.667,-29.304c-1.324,0.437 -1.593,2.561 -2.918,2.998c-2.806,-5.915 -2.582,-5.91 -1.317,-12.203c19.537,11.934 49.618,33.632 61.862,31.194c7.079,-1.409 22.862,1.117 12.967,-21.313c-4.628,-10.491 -6.042,-9.583 -16.141,-27.712c4.289,-1.928 3.941,-2.247 9.38,-6.401c13.586,6.113 35.877,19.91 32.282,8.89c-10.499,-32.185 -14.876,-46.99 -54.299,-85.758c-3.111,-3.059 0.268,-7.732 4.719,-4.689c9.18,6.274 8.705,6.677 18.629,12.028Z" style="fill:#453c33;"/><path d="M2029.786,775.816c4.874,6.034 5.306,5.145 12.05,9.498c92.751,25.024 166.68,47.913 148.138,35.869c-3.313,-2.152 -78.1,-22.872 -84.92,-24.762c-56.146,-15.556 -56.93,-13.744 -60.88,-16.898c2.383,-1.654 6.241,-4.332 36.116,3.248c74.607,18.931 116.936,35.87 126.808,39.82c-2.101,0.94 -3.502,3.094 -5.602,4.034c-0.536,0.24 -8.831,-1.611 -9.23,-1.29c-1.36,1.095 -1.01,3.577 -2.37,4.672c-58.862,-10.754 -154.662,-41.647 -159.463,-43.854c-0.125,-1.291 1.313,-2.414 1.188,-3.705c-0.053,-0.548 -0.136,-0.491 -1.835,-6.633Z" style="fill:#5c5449;"/><path d="M2039.092,688.801c17.737,1.316 65.978,-0.738 76.458,6.453c3.199,2.195 7.417,12.484 -40.83,26.163c-2.696,0.796 -5.391,1.593 -8.087,2.389c-9.884,1.939 -9.826,1.902 -10.675,2.094c-57.927,13.05 -58.729,5.298 -88.308,9.574c-2.65,-0.021 -38.99,-0.313 -32.307,-7.337c2.382,-2.504 93.825,10.47 166.746,-23.223c32.469,-15.002 -107.677,-7.214 -112.621,-13.132c-4.572,-5.474 2.562,-5.26 49.623,-2.98Z" style="fill:#3b332b;"/><path d="M1028.732,544.043c0.971,-0.16 2.866,-5.718 11.755,4.808c8.293,9.821 7.585,10.003 15.924,19.545c6.645,9.705 8.005,10.476 8.996,11.038c7.337,4.159 19.482,32.815 26.261,48.197c39.853,90.423 36.763,91.517 40.889,99.029c0.38,1.305 -1.312,2.664 -0.931,3.969c0.079,0.272 1.006,-0.869 2.744,2.248c3.071,5.507 1.788,5.881 4.81,11.301c1.937,3.686 3.874,7.373 5.811,11.059c7.204,10.513 11.733,11.091 5.17,22.172c-9.489,-19.668 -10.373,-18.998 -19.31,-38.729c-46.024,-101.616 -47.236,-126.33 -70.859,-154.199c-2.644,-3.119 -1.86,-3.68 -31.26,-40.438Z" style="fill:#382b22;"/><path d="M1199.094,1029.413c3.062,-7.652 3.066,-7.594 3.307,-8.264c0.201,-0.559 13.079,-29.611 7.101,-2.169c-0.87,3.995 4.899,2.841 3.212,8.448c-1.266,4.211 -7.43,24.704 -4.539,54.779c1.594,16.587 15.243,-1.429 18.859,-6.138c5.684,-7.401 4.398,-7.954 10.04,-15.433c11.194,-14.839 3.304,-26.591 10.055,-27.997c5.564,-1.159 8.179,-4.48 8.352,-4.529c0.744,-0.212 6.533,0.378 -0.836,9.632c-2.196,2.757 -14.729,18.495 1.059,44.044c2.604,4.214 10.935,6.248 36.993,-49.659c0.212,1.849 4.12,1.672 4.332,3.521c0.265,2.312 -17.856,40.698 -31.117,51.447c-15.459,12.531 -13.28,-2.87 -22.438,-20.566c-1.703,-3.292 -8.144,8.749 -10.793,12.303c-42.422,56.919 -28.914,-34.478 -29.38,-35.352c-0.558,-1.047 -2.043,-1.382 -2.601,-2.428c0.738,-1.853 0.537,-1.729 1.44,-3.614c3.097,-6.469 -2.928,-7.714 -3.046,-8.023Z" style="fill:#453c34;"/><path d="M2069.321,1024.435c0.636,1.225 2.582,1.382 3.217,2.607c0.26,0.502 -2.267,2.834 5.046,4.719c4.429,1.142 4.12,-0.21 8.309,-1.922c7.788,5.233 7.303,7.558 34.006,18.039c1.311,5.09 0.857,5.055 4.037,9.531c4.013,3.998 32.003,31.882 37.313,60.175c-2.236,-0.047 -4.473,-0.095 -6.709,-0.142c-0.247,-6.576 -2.257,-5.226 -2.311,-5.276c-1.686,-1.567 -4.479,-14.486 -12.373,-26.597c-28.171,-43.227 -54.929,-43.156 -84.784,-57.455c-8.367,-4.007 -77.775,-37.251 -98.183,-61.707c-5.269,-6.315 0.996,-9.612 4.774,-4.888c9.376,11.726 10.574,10.128 22.091,19.366c16.103,12.915 81.549,47.006 82.772,46.515c1.26,-0.506 1.535,-2.457 2.794,-2.962Z" style="fill:#3f362c;"/><path d="M1723.176,985.443c22.77,46.789 18.919,48.655 22.033,51.92c1.393,1.46 4.319,-3.468 5.711,-2.008c-1.74,22.097 -0.607,22.028 -3.474,44.076c-0.011,1.638 -0.023,3.276 -0.034,4.914c-11.981,0.336 -12.965,-1.093 -20.119,-6.646c-2.818,-2.187 -23.589,-18.308 -31.039,-32.002c-14.079,-25.881 0.775,11.91 -9.544,27.942c-5.004,7.775 -15.731,0.392 -7.813,-2.473c4.85,-1.755 11.79,-24.575 -3.389,-63.134c6.268,-7.128 3.584,-8.205 -0.135,-16.764c3.144,-15.466 5.532,2.114 13.058,16.032c-0.946,1.336 -7.263,0.105 -2.785,10.679c2.063,4.87 2.152,4.495 3.949,9.137c10.934,14.452 16.766,26.497 34.031,40.165c12.259,9.705 17.589,13.992 18.729,3.868c4.246,-37.708 -17.504,-68.627 -25.599,-85.02c-10.045,-20.343 6.144,-1.123 6.42,-0.686Z" style="fill:#3c342d;"/><path d="M281.403,307.695c13.828,5.418 13.518,6.002 167.599,79.843c87.346,41.859 87.44,41.636 88.62,42.84c12.965,13.219 -20.917,-3.804 -22.564,-4.631c-134.526,-67.585 -136.162,-63.915 -147.827,-69.831c-78.928,-40.026 -78.959,-40.848 -86.596,-40.463c-3.283,-3.481 -2.374,-4.129 0.768,-7.758Z" style="fill:#594e45;"/><path d="M87.003,221.885c0.352,9.361 2.573,8.794 2.993,18.399c1.001,22.877 119.131,93.464 155.871,124.387c2.887,2.43 28.186,19.742 30.656,21.432c-0.389,0.236 -4.865,2.955 -4.865,2.955c-0.594,-0.259 -0.494,-0.341 -6.665,-4.608c-35.922,-20.654 -49.877,-37.124 -65.247,-45.611c-3.213,-1.774 -66.089,-44.471 -80.049,-57.044c-24.425,-21.998 -35.232,-27.355 -36.152,-46.651c-0.042,-0.874 -0.08,-1.675 -3.321,-10.416c2.26,-0.947 4.519,-1.895 6.779,-2.842Z" style="fill:#3e322c;"/><path d="M2402.123,691.445c5.541,-0.871 5.466,-0.903 41.368,-7.234c102.254,-18.032 184.292,-75.74 169.57,-84.998c-0.538,-0.338 -12.429,-7.816 -2.002,-7.682c3.886,0.05 29.606,13.622 -21.349,43.635c-97.121,57.204 -174.77,58.829 -176.198,59.415c-0.983,0.404 0.525,2.752 -0.458,3.155c-7.855,-1.186 -7.037,-2.527 -10.931,-6.291Z" style="fill:#3c322a;"/><path d="M2267.413,839.182c73.435,10.698 73.809,4.403 104.461,0.929c32.242,-3.653 45.862,-18.929 46.762,-18.985c1.148,-0.072 6.345,3.815 -7.816,12.071c-8.141,4.746 -5.717,6.389 -5.747,6.437c28.429,-8.098 26.695,-11.487 41.578,-20.435c13.824,-8.311 3.911,18.853 -50.232,27.853c-3.556,0.591 -42.727,4.67 -46.445,5.057c-26.645,2.774 -68.482,-5.431 -74.341,-6.58c-7.434,-1.458 -7.627,1.762 -8.424,2.127c-0.615,-0.942 -2.166,-0.97 -2.78,-1.912c-0.398,-0.611 -0.081,-6.44 0.358,-6.929c0.591,-0.657 2.034,1.024 2.624,0.367Z" style="fill:#4d4139;"/><path d="M2746.081,333.858c0.009,0.17 1.708,2.511 0.321,5.971c-27.499,68.566 -167.025,130.307 -183.83,137.743c-2.149,0.879 -4.297,1.758 -6.446,2.637l-3.197,-3.986c17.87,-9.763 18.182,-8.771 36.561,-17.583c44.225,-21.203 67.107,-38.485 77.067,-44.125c46.414,-29.077 69.758,-70.1 73.999,-77.554c1.842,-1.034 3.684,-2.069 5.526,-3.103Z" style="fill:#2e241f;"/><path d="M589.376,574.903c2.021,0.803 4.043,1.606 6.064,2.409l2.469,1.733c3.618,3.504 3.118,3.57 6.564,6.874c12.425,11.915 103.447,53.463 136.533,44.219c-3.929,5.458 -4.502,5.366 -4.231,5.877c0,0 7,2.422 7.609,2.632c49.499,8.346 50.846,3.725 53.799,6.904c16.307,17.558 -70.868,-9.579 -90.04,-5.942c-3.553,-3.628 -2.916,-4.21 -7.338,-6.358c-91.851,-27.248 -90.394,-34.262 -111.446,-54.144l0.017,-4.204Z" style="fill:#44372d;"/><path d="M1209.421,1153.822c-5.774,47.116 -4.487,47.216 -2.011,57.719c4.533,19.233 30.793,-21.442 46.705,-66.681l4.01,1.711c0.719,0.416 1.744,-0.8 2.463,-0.384c0.33,0.191 -0.026,0.338 -0.364,4.745c-0.401,0.271 -2.685,-0.982 -3.943,2.666c-0.08,0.233 0.184,0.194 -0.132,3.075c-1.323,12.052 -29.953,66.245 -44.86,67.903c-22.217,2.47 -7.13,-67.887 -7.294,-68.398c-0.435,-1.358 -3.04,-1.136 -3.475,-2.494c-1.264,-1.933 -2.529,-3.865 -3.793,-5.798c8.577,-32.312 7.821,-32.683 9.94,-34.638c6.786,-6.26 1.971,7.383 5.131,12.635c3.59,5.966 0.566,6.337 -2.376,27.94Z" style="fill:#4c433a;"/><path d="M2505.795,321.945c3.271,6.206 3.807,6.151 3.524,6.685c-0.601,1.134 -2.109,1.6 -2.709,2.734c-1.175,-0.437 -1.515,-2.19 -2.69,-2.627c-0.215,-0.08 -73.642,37.379 -80.039,40.643c-112.3,57.291 -119.769,68.624 -117.979,58.251c1.565,-9.067 186.585,-99.452 199.893,-105.685Z" style="fill:#382f28;"/><path d="M2476.545,419.801c-7.193,4.313 -91.564,47.29 -132.372,62.144c-69.623,25.342 -79.942,32.088 -90.414,28.434c2.211,-3.211 1.951,-3.062 4.729,-6.166c1.439,0.198 1.775,2.746 3.214,2.944c1.229,0.169 1.998,-1.483 3.088,-2.076c17.531,-9.542 32.188,-9.161 35.15,-16.892c3.058,-0.748 6.116,-1.496 9.174,-2.243c0.772,0.302 0.216,3.799 5.037,1.971c1.157,-0.439 0.752,-0.761 1.873,-1.186c10.599,-4.08 92.951,-35.781 130.075,-56.883c3.106,-1.765 3.367,-2.252 3.532,-2.559c0.763,-1.42 -1.584,-1.066 -0.811,-2.504c1.557,-0.52 14.011,-4.678 19.304,-6.967l2.75,0.078l2.75,-0.236l2.92,2.142Z" style="fill:#564b41;"/><path d="M1880.176,552.432c30.989,-22.168 118.373,-72.116 139.422,-68.57c16.275,2.742 -7.191,6.611 -8.018,6.748c-24.43,4.028 -90.347,41.712 -96.668,46.393c-10.226,7.573 -50.951,31.854 -52.084,33.277c-21.288,26.722 -22.369,37.732 -25.199,40.917c-10.693,12.039 -2.463,-19.239 25.886,-51.168c7.766,0.64 7.246,-1.089 13.611,-5.316c1.016,-0.761 2.033,-1.521 3.049,-2.282Z" style="fill:#5b544b;"/><path d="M2264.373,769.094c4.956,2.014 5.197,1.63 8.313,5.893c-45.278,10.098 -236.874,-30.034 -231.331,-39.561c5.116,-8.793 40.395,22.493 215.042,36.239c7.84,0.617 7.367,-2.258 7.976,-2.57Z" style="fill:#6c6459;"/><path d="M1130.375,1177.548c0.739,1.851 3.917,1.903 4.656,3.754c1.354,3.39 -16.322,35.708 -11.886,71.343c1.915,15.381 12.153,7.732 13.119,5.343c2.023,-5.008 1.564,-5.411 6.321,-8.166c4.277,-2.477 16.777,-19.697 26.812,-38.761c1.809,0.189 1.996,3.722 3.805,3.911c1.169,0.122 7.43,-13.41 10.679,-20.095c2.043,-0.409 0.767,2.375 2.612,2.005c0.305,-0.061 0.315,-0.063 2.447,-3.019c50.527,-70.033 -5.898,17.049 -6.77,18.348c-23.445,34.936 -27.086,31.715 -39.586,48.622c-8.668,11.724 -23.384,10.302 -25.489,-5.285c-5.059,-37.451 9.852,-60.682 9.473,-63.447c-0.2,-1.459 -3.172,-1.396 -3.372,-2.855c4.852,-8.142 4.649,-8.098 7.178,-11.699Z" style="fill:#584f46;"/><path d="M691.494,889.056c2.016,1.017 4.032,2.033 6.047,3.05c-22.41,10.758 -99.424,33.087 -157.136,27.581c-8.367,-0.798 -8.117,-0.027 -16.535,0.857c-2.066,-1.87 -4.132,-3.741 -6.197,-5.611c-1.317,-0.373 -25.283,-7.161 -13.749,-10.18c5.802,-1.519 5.182,15.133 74.877,3.768c4.054,3.044 4.371,7.146 41.114,-0.775c36.187,-7.801 36.15,-7.29 71.579,-18.69Z" style="fill:#382d25;"/><path d="M312.648,401.912c39.329,11.454 208.113,65.448 208.431,72.465c0.351,7.73 -4.683,-1.222 -112.962,-35.045c-15.563,-4.861 -15.342,-5.075 -85.703,-29.963c-0.401,-0.142 -0.367,0.142 -4.959,1.912c-4.722,-3.411 -4.695,-3.673 -4.807,-9.368Z" style="fill:#6a5e51;"/><path d="M1314.519,1064.54c2.843,0.73 4.941,-1.909 4.401,1.131c-2.329,13.121 -20.676,58.171 -22.7,63.143c0.135,1.886 0.27,3.772 0.405,5.659l3.288,3.004c-21.68,29.192 -21.055,29.681 -23.349,31.854c-14.136,13.384 -15.591,-10.578 -16.34,-18.396c0.338,-4.407 0.693,-4.555 0.364,-4.745c-0.719,-0.416 -1.744,0.8 -2.463,0.384l-4.01,-1.711c4.257,-14.623 3.876,-14.438 4.924,-29.668c0.773,-11.234 16.537,-27.2 12.457,-11.127c-3.501,13.79 -8.632,13.469 -4.253,52.181c4.067,35.953 26.884,-41.333 47.276,-91.708Z" style="fill:#3f352e;"/><path d="M736.545,1061.996l2.332,4.408c-6.651,5.779 -18.756,13.743 -39.987,42.541c-3.978,4.338 -3.919,4.105 -7.512,8.691c-0.618,1.1 -10.514,18.734 2.67,15.545c0.249,-0.06 -0,-0 2.413,-2.106c1.12,-1.602 2.24,-3.205 3.361,-4.807c14.249,11.133 17.636,2.196 76.912,-22.749c-0.013,1.59 3.265,1.9 3.253,3.49c-0.007,0.869 -42.998,20.584 -46.766,22.312c-2.023,0.97 -1.88,0.743 -3.807,1.825c-3.123,1.754 -0.879,2.521 1.078,6.858c-17.87,3.273 -18.017,-1.612 -36.119,1.863c-29.473,5.658 -8.355,-24.974 -7.096,-26.8c5.247,-7.611 7.986,-9.395 21.762,-27.471c7.216,-9.469 18.476,-16.312 27.506,-23.601Z" style="fill:#3b322a;"/><path d="M1199.094,1029.413c0.118,0.31 6.142,1.554 3.046,8.023c-0.902,1.885 -0.701,1.76 -1.44,3.614c-2.096,4.614 -11.77,25.914 -36.138,52.021c-36.87,39.501 -10.487,-76.314 -0.005,-85.281c11.34,-9.701 2.359,9.938 1.996,10.732c-19.126,41.824 -13.33,73.059 -12.353,73.717c1.651,1.112 28.232,-22.501 44.894,-62.827Z" style="fill:#342a23;"/><path d="M1095.792,1092.477c-37.007,-12.584 23.384,-129.675 25.92,-112.669c0.403,2.702 -45.391,82.733 -27.726,103.698c5.889,6.99 32.039,-18.192 34.56,-20.932c0.645,-0.702 0.533,-0.752 7.94,-8.887c28.951,-31.799 -0.554,9.338 -1.069,9.952c-18.341,21.836 -35.9,27.614 -39.624,28.84Z" style="fill:#372d26;"/><path d="M434.99,530.905c0.625,0.888 -1.264,2.308 -0.638,3.196c1.904,2.704 64.687,18.254 70.36,19.659c71.247,17.646 73.866,10.047 77.032,9.156c8.672,-2.439 -0.032,7.111 -0.44,7.559c-0.148,0.415 -0.954,0.316 -1.102,0.731c-0.139,0.388 -0.098,0.368 -1.327,4.973c-20.967,-7.429 -75.158,-11.037 -156.902,-40.88c1.176,-1.08 1.144,2.068 2.375,0.937c2.152,-1.976 -0.054,-3.074 2.105,-5.051c1.343,-1.23 7.861,-0.371 8.538,-0.282Z" style="fill:#50473e;"/><path d="M2069.321,1024.435c-40.55,-26.875 -41.206,-25.504 -80.474,-54.172c-46.174,-33.71 -49.458,-35.894 -45.429,-38.429c3.028,-1.905 3.939,-1.341 37.438,24.454c50.985,39.261 52.72,36.308 105.037,73.551c-4.189,1.712 -3.88,3.064 -8.309,1.922c-7.313,-1.885 -4.786,-4.217 -5.046,-4.719c-0.636,-1.225 -2.582,-1.382 -3.217,-2.607Z" style="fill:#40372d;"/><path d="M287.918,476.229c76.384,23.898 83.618,23.552 78.556,27.892c-2.551,2.187 -56.441,-14.453 -72.22,-21.22c-0.468,-0.131 -8.704,-2.429 -5.795,1.822c0.838,1.225 3.4,0.139 4.238,1.364c25.059,10.788 42.705,15.087 77.229,26.65c-2.399,1.377 -1.891,5.004 -10.026,2.012c-6.258,-2.302 -8.143,-2.041 -20.641,-6.284c-6.004,-2.038 -58.868,-19.982 -74.013,-28.328c6.799,-8.811 8.625,-0.99 19.65,0.219c0,0 2.78,-3.797 3.022,-4.128Z" style="fill:#625951;"/><path d="M87.003,221.885c-2.26,0.947 -4.519,1.895 -6.779,2.842c-9.965,-29.679 38.333,7.217 80.294,25.039c55.697,23.656 53.188,31.71 58.006,29.717c1.335,-0.552 1.597,-2.639 2.932,-3.191c1.645,1.377 1.541,1.251 3.078,2.577c4.159,3.587 0.895,4.185 -3.889,7.123c-9.69,-4.047 -9.224,-4.359 -18.955,-8.931c-89.133,-41.882 -99.808,-54.235 -114.688,-55.175Z" style="fill:#514641;"/><path d="M593.063,849.299c-0.484,0.333 -4.058,2.789 -6.274,3.821c-71.943,33.518 -72.666,31.752 -78.808,34.883c-37.125,18.926 -5.416,34.419 9.694,26.93c2.066,1.87 4.132,3.741 6.197,5.611c-35.378,10.412 -59.683,-17.868 -19.77,-37.53c0.071,-0.035 60.658,-24.959 74.332,-32.343c13.081,-8.816 13.427,-1.964 14.629,-1.373Z" style="fill:#41352c;"/><path d="M2740.555,336.961c-4.241,7.453 -27.585,48.476 -73.999,77.554c-2.196,-3.603 -5.381,-3.562 -1.725,-9.412c1.406,0.519 2.185,2.187 3.591,2.706c0.432,0.159 0.55,-0.75 0.901,-1.049c18.656,-15.932 22.795,-23.921 24.112,-26.464c33.212,-28.906 26.131,-34.446 27.767,-40.6c0.432,-1.624 14.79,-8.016 16.596,-6.848c1.387,0.896 1.37,3.219 2.757,4.115Z" style="fill:#f4eddd;"/><path d="M2327.932,690.414c-3.703,1.422 -7.407,2.844 -11.11,4.266c-79.676,-8.423 -79.7,-14.368 -142.969,-6.076c-7.158,0.938 -7.654,-4.319 -2.836,-5.515c49.815,-12.36 120.256,3.493 156.915,7.325Z" style="fill:#453c34;"/><path d="M441.321,621.15c1.908,-0.324 1.691,-4.232 3.598,-4.555c17.636,-2.992 42.69,19.269 150.326,17.851c1.809,2.029 1.664,1.818 2.573,4.571c-38.04,8.359 -113.239,-9.23 -156.498,-17.866Z" style="fill:#81776a;"/><path d="M2044.174,779.523c3.95,3.154 4.733,1.342 60.88,16.898c6.82,1.889 81.607,22.61 84.92,24.762c18.542,12.043 -55.388,-10.845 -148.138,-35.869c0.78,-1.93 1.559,-3.86 2.339,-5.79Z" style="fill:#f8f3e2;"/><path d="M1632.834,1035.311c-3.488,-22.557 -13.151,-35.85 -6.209,-35.873c14.012,-0.047 -3.145,36.544 51.864,85.71c12.054,10.773 -14.765,7.2 -33.84,-32.606c-7.916,-16.518 -4.847,4.911 -8.517,13.565c-4.252,10.027 -14.129,4.851 -8.934,0.248c6.85,-6.069 5.237,-18.824 5.635,-31.044Z" style="fill:#372f28;"/><path d="M559.353,770.534c90.312,-31.72 139.051,-39.729 139.89,-39.241c9.029,5.25 -4.124,3.993 -124.45,39.47c-3.453,1.136 -2.706,1.732 -4.495,4.078c-5.04,-0.158 -5.009,-0.207 -5.443,-0.171c-5.199,0.431 -5.341,-4.016 -5.502,-4.137Z" style="fill:#41392f;"/><path d="M914.74,780.262c-1.292,-0.746 -1.432,-2.806 -2.725,-3.552c-1.008,-0.582 -2.088,-1.205 -12.273,7.812c-1.143,-1.991 1.774,-1.908 0.635,-3.892c-0.858,-1.495 -0.536,0.703 -2.164,1.229c-64.924,20.975 -68.245,11.058 -70.03,5.727c2.212,-0.009 4.423,-0.019 6.635,-0.028c18.981,3.81 55.647,-10.337 71.585,-15.308c23.178,-7.23 36.778,-17.808 43.435,-20.664c4.191,-1.798 8.559,3.28 -0.194,7.79c-18.205,9.38 -17.932,9.457 -34.904,20.887Z" style="fill:#41362c;"/><path d="M1726.259,983.515c-0.114,-0.722 -3.668,-23.234 4.18,-8.129c16.663,32.069 14.311,38.883 63.556,74.305c15.012,10.798 38.344,11.516 20.062,14.361c-15.411,2.398 -43.541,-23.597 -46.696,-26.513c-14.103,-13.033 -19.109,-23.323 -18.561,-12.938c-0.559,-0.326 -3.126,2.037 -4.45,-2.596c-3.307,-11.571 -2.651,-11.685 -18.091,-38.49Z" style="fill:#3f362e;"/><path d="M2448.821,424.785c-0.773,1.438 1.574,1.085 0.811,2.504c-0.165,0.307 -0.426,0.794 -3.532,2.559c-37.124,21.102 -119.476,52.803 -130.075,56.883l-1.423,-3.525c43.666,-20.216 97.782,-44.047 134.219,-58.421Z" style="fill:#f3efe1;"/><path d="M1318.127,1057.009c5.195,-4.615 7.491,-2.07 10.255,-8.51c4.472,-10.417 7.495,-7.469 16.619,-14.403c9.73,-7.394 5.923,2.553 5.511,2.902c-34.681,29.432 -18.272,54.169 -50.6,100.477l-3.288,-3.004c-0.135,-1.886 -0.27,-3.772 -0.405,-5.659c1.677,-0.838 3.14,1.818 5.655,-2.826c8.234,-15.201 23.829,-64.995 22.549,-65.98c-1.46,-1.124 -1.514,1.35 -3.263,0.517c-2.393,-1.139 -0.824,-2.463 -3.034,-3.515Z" style="fill:#544d44;"/><path d="M886.388,891.406c0.101,1.407 1.149,2.637 1.25,4.044c0.546,7.619 -83.424,55.137 -110.207,66.558c-2.007,-1.441 -0.861,-2.233 -3.038,-3.796c-1.058,-0.759 -1.245,1.067 -2.183,0.048c-3.092,-3.358 1.707,-1.909 4.753,-5.315c1.175,0.398 1.485,2.206 2.66,2.604c0.882,0.298 76.984,-40.812 106.764,-64.143Z" style="fill:#494036;"/><path d="M1970.806,840.296c11.146,-31.075 -68.67,-74.871 -68.594,-79.891c0.249,-16.529 102.823,69.884 73.656,82.156l-5.061,-2.265Z" style="fill:#31261d;"/><path d="M1918.205,757.79c0.501,0.047 53.037,13.281 71.562,15.063c12.408,1.194 25.227,-2.213 15.499,5.849c-10.414,8.63 -74.923,-4.631 -86.775,-18.327c-0.567,-0.656 0.282,-1.929 -0.286,-2.585Z" style="fill:#504236;"/><path d="M779.59,1027.086c26.483,-22.254 98.842,-69.485 101.973,-70.368c8.326,-2.35 -1.001,9.112 -14.612,16.836c-40.863,23.188 -82.049,58.143 -84.029,57.208c-1.495,-0.706 -1.837,-2.969 -3.332,-3.676Z" style="fill:#494036;"/><path d="M855.634,1138.709c0.147,1.483 1.999,2.438 2.145,3.921c0,0 -3.457,5.045 -3.757,5.484c-12.744,0.867 -95.177,51.895 -101.076,38.011c-1.936,-4.556 4.699,1.403 56.896,-24.32c34.017,-16.764 38.392,-19.454 41.58,-21.414c0.309,-0.19 0.312,-0.125 4.212,-1.682Z" style="fill:#3c322b;"/><path d="M1001.412,606.918c14.507,28.879 12.927,30.006 18.923,35.233c0.413,0.65 4.846,7.627 4.92,8.269c0.882,7.65 -7.683,0.44 -11.985,-8.236c-20.14,-40.618 -21.831,-39.839 -22.625,-43.694c-0.438,-2.126 -1.328,-6.447 -16.404,-21.62c-20.335,-20.467 -21.987,-18.526 -23.648,-20.392c-3.039,-3.411 2.823,-7.528 15.379,3.862c25.956,23.547 28.741,35.683 35.44,46.577Z" style="fill:#5f584e;"/><path d="M992.019,1185c-0.295,0.244 -3.69,3.054 -3.69,3.054c-0.763,0.087 -1.045,-1.515 -1.808,-1.429l-3.884,-0.343c14.898,-36.727 65.35,-91.858 66.736,-92.8c21.409,-14.537 -23.913,35.893 -31.997,47.097c-2.313,3.207 -26.872,37.245 -27.663,40.958c-0.289,1.356 2.595,2.106 2.306,3.462Z" style="fill:#4c4236;"/><path d="M891.945,1112.349c22.424,-4.883 81.624,-70.082 83.038,-70.564c17.222,-5.871 -40.508,55.462 -84.506,79.713c-0.509,-4.944 -0.167,-4.688 1.468,-9.15Z" style="fill:#3f362d;"/><path d="M1794.349,1073.914c4.785,-0.345 5.205,-0.976 8.392,2.557c-0.22,0.558 -3.979,2.407 -1.175,6.103c28.589,37.687 27.071,38.566 53.246,76.585c3.055,4.437 -0.289,5.379 -0.334,6.216c-23.74,-23.375 -58.171,-81.247 -60.129,-91.461Z" style="fill:#f0ead7;"/><path d="M1152.346,780.685l3.978,-2.33c32.648,54.99 63.583,77.16 70.63,82.211c24.701,17.703 -25.979,9.215 -74.609,-79.881Z" style="fill:#463f36;"/><path d="M1802.741,1076.471c5.643,6.639 35.101,41.297 61.625,89.798c-1.664,0.744 -2.315,3.007 -3.979,3.751c-0.312,0.139 -0.295,-0.015 -5.91,-4.646c0.045,-0.836 3.389,-1.779 0.334,-6.216c-26.175,-38.019 -24.656,-38.897 -53.246,-76.585c-2.804,-3.697 0.955,-5.545 1.175,-6.103Z" style="fill:#50483d;"/><path d="M1002.507,600.963c11.144,-10.973 13.839,33.036 27.354,37.347c13.503,4.307 11.478,7.162 17.808,19.672c3.678,7.269 7.2,19.926 9.772,28.135c-2.765,3.338 -2.639,3.465 -2.986,3.605c-0.806,0.325 -1.616,-1.29 -2.422,-0.965c-11.425,-35.121 -13.454,-38.412 -28.027,-47.28c-2.313,-2.848 -1.567,-3 -21.499,-40.514Z" style="fill:#5f574e;"/><path d="M1583.778,1035.298c-1.231,-20.246 -16.554,-48.513 -4.522,-37.694c14.832,13.336 -5.317,28.263 44.243,79.169c10.331,10.612 -11.714,2.869 -23.311,-17.222c-5.206,-9.019 -5.059,-8.864 -9.727,-18.13c-1.607,-1.425 -0.781,-1.785 -2.374,-3.197c-0.312,-0.276 -0.319,-0.217 -4.309,-2.926Z" style="fill:#302821;"/><path d="M2149.074,882.467c80.743,23.572 188.812,26.098 104.695,24.278c-45.524,-0.985 -75.559,-10.898 -107.174,-20.102c0.826,-1.392 1.653,-2.784 2.479,-4.176Z" style="fill:#f4eedc;"/><path d="M1865.151,846.252c-0.685,-0.696 -8.567,-8.698 -8.567,-8.698c-3.338,-23.6 30.087,33.727 56.664,48.703c-5.439,4.154 -5.091,4.473 -9.38,6.401c-2.559,-4.775 -1.521,-5.857 -31.108,-29.164c0.532,-1.776 3.227,-2.324 3.759,-4.1c0.471,-1.574 -0.327,-1.412 -11.368,-13.141Z" style="fill:#2f261f;"/><path d="M1296.366,1024.288c7.537,-18.128 7.114,-28.103 11.05,-28.425c7.149,-0.585 -5.117,28.668 0.744,39.129c5.838,10.421 20.619,-20.22 21.84,-21.1c11.274,-8.13 -2.119,18.594 -11.232,27.128c-6.657,6.235 -15.477,2.877 -16.673,-2.884c-1.589,-7.649 -1.336,-7.586 -5.728,-13.848Z" style="fill:#302720;"/><path d="M1940.493,1007.211c16.44,11.051 135.455,105.661 56.831,51.396c-27.792,-19.181 -53.747,-43.681 -58.126,-47.814l1.295,-3.583Z" style="fill:#f3eddc;"/><path d="M859.755,805.168c18.08,-4.957 -1.244,9.956 -2.965,10.663c-12.054,4.953 -10.177,7.623 -11.266,7.651c-17.316,0.445 -42.46,23.782 -52.134,24.638c-14.201,1.256 12.342,-12.964 66.366,-42.953Z" style="fill:#6c6256;"/><path d="M914.74,780.262c-36.769,25.56 -42.403,49.015 -43.708,54.446c-3.294,7.31 -3.281,7.286 -3.296,7.309c-0.829,-0.835 -2.367,-0.662 -3.196,-1.497c-0.852,-0.858 -9.924,-17.91 35.202,-55.999c10.186,-9.017 11.266,-8.394 12.273,-7.812c1.292,0.746 1.432,2.806 2.725,3.552Z" style="fill:#32261e;"/><path d="M1583.778,1035.298c3.99,2.709 3.998,2.649 4.309,2.926c1.593,1.412 0.767,1.772 2.374,3.197c-0.415,0.994 -2.086,1.053 -2.501,2.048c-0.52,1.244 -0.093,1.217 -2.667,16.644c-3.582,21.475 -17.88,3.382 -21.241,-0.139c-0.268,-0.606 -37.04,-60.586 -18.082,-40.211c6.12,6.577 29.718,54.387 33.077,42.942c0.301,-1.026 -0.666,-1.125 2.025,-13.216c1.592,-7.15 1.324,-6.944 2.706,-14.189Z" style="fill:#524b42;"/><path d="M1468.471,944.207c-0.429,1.705 -3.813,1.43 -4.243,3.135c-1.304,5.177 10.427,30.667 10.451,32.921c0.124,11.35 -8.937,-6.395 -12.51,-16.54c-11.427,-32.444 -3.426,-33.752 -4.958,-36.246c-2.478,-4.034 -2.267,-22.922 -1.22,-24.205c8.798,-10.783 0.454,16.093 12.479,40.935Z" style="fill:#59544c;"/><path d="M865.148,1060.423c-6.468,8.029 -7.52,7.868 -8.424,7.731c-1.627,-0.248 -1.967,-3.136 -3.593,-3.384c20.624,-19.689 67.611,-58.591 69.572,-58.959c15.822,-2.967 -33.418,34.153 -57.555,54.612Z" style="fill:#3e352c;"/><path d="M639.439,835.737c0.57,-1.192 -0.776,-2.766 -0.207,-3.958c1.06,-2.217 30.432,-8.085 33.117,-8.622c49.392,-9.869 49.119,-16.644 52.388,-13.799c11.434,9.95 -84.729,26.298 -85.299,26.378Z" style="fill:#81766b;"/><path d="M1067.047,1178.908c-0.048,0.318 -0.594,3.979 -0.594,3.979c0.674,0.34 1.543,-0.8 2.217,-0.46c-3.906,4.743 -4.584,9.415 -7.796,4.197c-0.596,-0.968 -0.974,-2.06 -1.57,-3.028c2.558,-6.116 29.181,-69.772 42.045,-71.408c10.51,-1.336 -2.681,4.596 -20.718,39.301c-6.029,11.601 -5.818,11.527 -13.584,27.419Z" style="fill:#4f453a;"/><path d="M672.343,562.443c0.434,0.221 5.425,2.767 5.425,2.767c0.075,0.599 -0.388,0.38 -5.395,5.284c-34.693,-0.318 -54.976,-0.683 -60.495,0.377c-13.55,2.602 -13.043,7.452 -13.969,8.173l-2.469,-1.733c2.195,-10.54 5.86,-17.091 71.456,-11.917c4.146,0.327 5.301,-2.873 5.446,-2.952Z" style="fill:#666057;"/><path d="M1799.615,661.299c-4.161,8.889 -6.779,0.926 -5.779,-2.814c6.097,-22.795 34.412,-76.512 40.251,-67.045c3.271,5.304 -10.912,1.012 -34.472,69.858Z" style="fill:#584f46;"/><path d="M2146.703,571.401c-76.924,29.011 -82.061,22.405 -82.21,15.711c-0.079,-3.546 1.242,-2.647 4.919,-4.994c3.465,3.18 2.936,5.373 10.539,4.293c19.429,-2.437 61.989,-19.124 63.278,-19.187c1.809,-0.089 1.666,4.267 3.475,4.178Z" style="fill:#4a413a;"/><path d="M183.351,223.528c10.794,8.748 49.258,32.863 60.595,53.05c-0.956,-0.398 -2.105,0.93 -3.061,0.531c-4.059,-1.691 -41.405,-36.361 -41.546,-36.338c-1.728,0.29 -2.158,3.251 -3.887,3.541c-5.576,-5.898 -5.49,-5.664 -10.836,-11.462c-3.569,-3.871 -3.195,-4.294 -1.265,-9.322Z" style="fill:#89857e;"/><path d="M875.84,510.184c1.374,0.591 61.068,27.44 61.18,32.909c0.166,8.117 -11.247,-4.131 -41.716,-17.031c-33.376,-14.131 -34.564,-15.936 -32.807,-18.378c2.016,-2.803 12.36,2.04 13.343,2.5Z" style="fill:#706961;"/><path d="M932.912,822.368c4.932,3.917 5.311,3.678 5.314,4.221c0.01,1.764 -1.841,0.759 -1.831,2.538c-22.063,-0.958 -38.867,26.934 -68.659,12.89c0.015,-0.023 0.003,0.001 3.296,-7.309c9.669,9.035 12.1,6.2 61.88,-12.34Z" style="fill:#453b31;"/><path d="M603.406,902.542c61.407,-17.462 89.796,-31.402 78.808,-19.335c-2.226,2.444 -73.984,23.976 -75.814,23.045c-1.416,-0.72 -1.578,-2.989 -2.994,-3.709Z" style="fill:#453d33;"/><path d="M1384.625,919.875c6.575,4.817 2.692,9.408 -1.664,33.129c-6.712,36.547 -20.534,47.1 -19.665,38.373c0.303,-3.041 3.005,-2.019 13.586,-35.709c3.953,-18.157 3.487,-24.437 7.743,-35.794Z" style="fill:#3d3630;"/><path d="M1914.579,816.726c38.144,24.79 51.36,23.899 56.227,23.571l5.061,2.265c-2.932,2.357 -3.684,9.581 -32.8,-2.898c-18.875,-8.09 -22.501,-15.396 -25.024,-13.342c-0.784,0.638 0.275,2.351 -0.509,2.99c-4.614,-6.451 -6.617,-6.163 -4.909,-10.162l1.954,-2.424Z" style="fill:#60574d;"/><path d="M2152.022,568.925l-5.319,2.476c-1.809,0.089 -1.666,-4.267 -3.475,-4.178c-1.289,0.064 -43.849,16.75 -63.278,19.187c0.211,-1.073 1.151,-0.211 1.379,-1.374c0.078,-0.399 -0.004,-0.376 -0.052,-5.078l1.767,-1.169c1.213,0.605 1.569,2.361 2.783,2.966c3.615,1.803 17.988,-13.04 60.172,-18.562c6.995,-0.916 4.6,2.773 6.024,5.731Z" style="fill:#dedace;"/><path d="M1558.152,876.307c-31.451,14.283 -79.961,-6.219 -68.494,-10.379c2.283,-0.828 29.371,12.91 54.354,8.817c3.719,-0.609 7.355,-2.559 11.1,-2.145c1.588,0.175 1.451,3.532 3.04,3.707Z" style="fill:#413b33;"/><path d="M1196.727,1147.885c1.264,1.933 2.529,3.865 3.793,5.798c-4.649,14.23 -3.472,15.737 -16.638,41.193c-3.249,6.684 -9.51,20.217 -10.679,20.095c-1.809,-0.189 -1.996,-3.722 -3.805,-3.911c17.076,-30.01 15.672,-30.512 27.329,-63.176Z" style="fill:#322821;"/><path d="M1384.625,919.875c-4.256,11.356 -3.79,17.636 -7.743,35.794c-1.734,0.723 -1.517,-1.481 -3.31,-0.734c-2.195,0.914 -0.702,2.135 -2.657,3.221c-1.07,0.594 -2.59,-0.307 -3.66,0.287c12.637,-36.503 9.437,-70.921 16.368,-57.291c0.575,1.131 -1.506,1.164 -0.933,15.834c0.045,1.159 1.89,1.732 1.935,2.89Z" style="fill:#746e65;"/><path d="M350.56,763.237c0.648,-0.691 -0.15,-2.106 0.497,-2.796c0.98,-1.045 1.285,-0.346 24.353,4.968c7.997,1.842 5.481,-2.744 6.208,-3.589c23.628,4.21 23.356,4.87 34.893,7.392c-3.507,3.08 -3.105,7.043 -21.685,3.221c-22.326,-4.592 -22.374,-3.532 -44.266,-9.195Z" style="fill:#9c968f;"/><path d="M1688.432,1007.301c1.117,1.585 1.05,1.369 2.147,3.044c29.936,45.709 35.686,42.317 35.628,47.037c-0.16,13.047 -32.482,-32.223 -33.438,-32.218c-1.242,0.006 -1.932,1.945 -3.174,1.952c-1.797,-4.642 -1.886,-4.266 -3.949,-9.137c-4.478,-10.574 1.839,-9.343 2.785,-10.679Z" style="fill:#71695e;"/><path d="M1318.127,1057.009c2.21,1.052 0.641,2.376 3.034,3.515c1.75,0.833 1.804,-1.641 3.263,-0.517c1.28,0.985 -14.315,50.779 -22.549,65.98c-2.515,4.644 -3.979,1.988 -5.655,2.826c2.025,-4.971 20.371,-50.022 22.7,-63.143c0.54,-3.04 -1.558,-0.4 -4.401,-1.131c1.404,-4.09 1.249,-3.982 3.608,-7.531Z" style="fill:#eae6d9;"/><path d="M1997.933,922.595c0.244,-0.259 0.661,-4.466 5.177,-1.819c3.88,2.274 41.058,24.066 49.928,25.844c1.092,0.219 1.551,-2.263 2.643,-2.044c4.923,3.524 3.786,4.263 4.499,9.643c-19.023,-6.742 -42.053,-15.39 -62.248,-31.624Z" style="fill:#595146;"/><path d="M195.452,244.312c1.728,-0.29 2.158,-3.251 3.887,-3.541c0.141,-0.024 37.487,34.647 41.546,36.338c0.956,0.398 2.105,-0.93 3.061,-0.531c-1.431,2.158 -2.862,4.317 -4.293,6.475c-0.074,-0.059 -26.393,-18.531 -44.201,-38.741Z" style="fill:#f1ecde;"/><path d="M798.924,779.343c-0.156,1.787 -0.312,3.574 -0.468,5.36c-45.136,20.936 -45.302,20.183 -49.212,22.003c-5.557,2.587 -8.146,-3.328 -2.758,-5.362c49.118,-18.544 48.017,-20.928 52.438,-22.002Z" style="fill:#aea492;"/><path d="M710.757,576.621c0.836,-0.502 0.525,-5.298 13.875,-0.639l11.262,2.432c27.536,5.388 27.957,4.522 29.486,6.39c4.798,5.862 -10.038,8.364 -54.623,-8.183Z" style="fill:#45392f;"/><path d="M1753.362,1197.517c19.867,26.55 20.379,25.951 41.823,51.39c-1.442,-0.287 -2.74,1.69 -4.182,1.402c-0.264,-0.053 -17.219,-19.207 -18.706,-20.886c-1.019,-1.506 -12.242,-18.096 -13.361,-18.388c-1.476,-0.385 -2.925,1.639 -4.401,1.254c-5.618,-7.504 -9.205,-9.791 -1.172,-14.772Z" style="fill:#bbb6aa;"/><path d="M1538.381,1043.752c-15.028,-35.78 -15.417,-35.378 -16.24,-38.627c-0.163,-0.645 3.174,-8.046 7.707,3.127c15.848,39.059 20.007,37.324 20.091,40.974c0.024,1.023 -2.349,5.714 -11.559,-5.473Z" style="fill:#5b544a;"/><path d="M776.735,1103.52c1.912,-0.835 3.722,-1.892 5.635,-2.726c3.233,-1.411 5.194,1.579 8.666,4.087c-4.193,2.719 -41.423,26.858 -56.279,27.097c-1.022,0.016 -0.512,-2.672 -1.535,-2.656c3.768,-1.728 46.759,-21.443 46.766,-22.312c0.013,-1.59 -3.265,-1.9 -3.253,-3.49Z" style="fill:#e3dfd0;"/><path d="M1975.591,741.873c1.306,-0.786 1.757,-2.61 3.063,-3.396c5.842,-3.516 45.368,19.866 43.857,24.676c-0.439,1.398 -2.469,1.897 -2.908,3.295c-15.792,-14.872 -40.199,-23.263 -44.012,-24.574Z" style="fill:#483f35;"/><path d="M1726.259,983.515c15.44,26.805 14.784,26.919 18.091,38.49c1.324,4.634 3.891,2.27 4.45,2.596c0.707,3.585 1.414,7.169 2.12,10.754c-1.393,-1.46 -4.319,3.468 -5.711,2.008c-3.114,-3.265 0.737,-5.132 -22.033,-51.92c1.028,-0.643 2.055,-1.285 3.083,-1.928Z" style="fill:#bcb7aa;"/><path d="M741.007,630.137c2.852,-0.184 2.59,-0.191 5.589,-0.36c1.631,-0.092 1.389,-0.268 2.891,-0.388c16.266,-1.301 40.024,5.12 38.563,7.174c-4.871,6.847 -35.177,-9.159 -43.665,2.084c-0.609,-0.211 -7.609,-2.632 -7.609,-2.632c-0.272,-0.512 0.302,-0.419 4.231,-5.877Z" style="fill:#786e62;"/><path d="M408.474,700.314c-0.395,0.186 -1.423,3.043 -5.961,2.8c-0.387,-0.021 -3.568,-0.191 -4.848,-0.046c-13.951,1.586 -13.8,1.245 -33.468,-2.458c-0.508,-0.096 -27.13,-8.221 -2.565,-5.937c23.763,2.209 23.366,3.217 46.842,5.641Z" style="fill:#bab3a2;"/><path d="M342.324,752.354c3.12,0.85 7.383,2.011 39.294,9.465c-0.727,0.845 1.789,5.431 -6.208,3.589c-23.067,-5.314 -23.373,-6.013 -24.353,-4.968c-0.648,0.691 0.15,2.106 -0.497,2.796c-10.687,-4.917 -10.815,-4.594 -11.538,-5.309c-0,-0 3.038,-5.128 3.302,-5.574Z" style="fill:#594f46;"/><path d="M2443.65,309.781c-0.741,0.403 -17.467,9.497 -10.547,0.013c2.056,-2.817 50.695,-29.453 37.477,-14.415c-0.315,0.359 -25.548,13.497 -26.93,14.402Z" style="fill:#a1988c;"/><path d="M2638.621,163.697c-0.996,0.64 -8.131,6.221 -17.636,10.067c-4.476,1.812 -5.74,6.023 -8.088,4.648c-1.595,-0.934 -0.788,-4.072 -2.383,-5.006c3.806,-3.041 3.786,-2.71 7.888,-5.41c10.955,-7.21 14.03,-15.95 20.219,-4.299Z" style="fill:#706865;"/><path d="M1768.56,1231.431l3.737,-2.008c1.487,1.68 18.442,20.834 18.706,20.886c1.442,0.287 2.74,-1.69 4.182,-1.402c1.715,1.973 3.43,3.946 5.144,5.919c-1.554,0.87 -1.784,3.302 -3.339,4.172c-5.337,2.989 -26.521,-25.04 -28.431,-27.567Z" style="fill:#655d52;"/><path d="M224.798,623.339c4.141,8.602 4.987,7.86 10.609,15.65c-4.875,1.976 -6.611,4.601 -16.199,-6.403c-0.54,-0.62 -3.486,-4.001 -3.346,-9.712c0.15,-6.107 3.192,-1.678 8.936,0.465Z" style="fill:#8d8279;"/><path d="M2693.434,380.295c-1.317,2.543 -5.456,10.532 -24.112,26.464c-0.35,0.299 -0.468,1.208 -0.901,1.049c-1.406,-0.519 -2.185,-2.187 -3.591,-2.706c8.626,-9.593 15.427,-21.121 28.604,-24.807Z" style="fill:#7c746d;"/><path d="M136.242,386.333c-4.593,5.489 -6.126,1.591 -18.377,-12.223c-0.534,-0.602 -11.511,-12.978 -0.851,-10.023c2.267,0.628 0.521,2.178 19.228,22.246Z" style="fill:#736c63;"/><path d="M1659.024,795.362c0.341,2.032 3.883,2.479 4.225,4.511c0.333,1.984 -13.747,14.163 -15.044,15.286c-0.535,0.462 -5.561,4.811 -7.245,5.055c-1.469,0.213 -2.188,-2.757 -3.657,-2.544c13.797,-14.956 19.896,-20.615 21.722,-22.309Z" style="fill:#342b25;"/><path d="M1002.507,600.963c19.932,37.515 19.185,37.666 21.499,40.514l-3.67,0.673c-5.996,-5.226 -4.416,-6.354 -18.923,-35.233c0.365,-1.985 0.73,-3.969 1.095,-5.954Z" style="fill:#dbd5c8;"/><path d="M1675.374,991.269c3.719,8.558 6.403,9.636 0.135,16.764c-0.157,-0.243 -9.189,-12.914 -11.5,-19.069c-10.156,-27.049 6.577,1.637 6.864,2.136c2.613,4.536 4.163,0.157 4.501,0.17Z" style="fill:#7e7a6f;"/><path d="M1707.751,1094.367c-1.926,2.931 -1.722,2.738 -1.926,2.931c-1.259,1.192 -1.711,0.171 -2.873,1.27c-11.036,-26.746 -9.928,-28.114 -7.633,-29.154c2.031,-0.921 4.062,-0.852 12.431,24.952Z" style="fill:#6d665b;"/><path d="M2082.192,867.412c5.703,0.57 5.665,0.586 6.159,0.616c1.044,0.063 0.849,-0.464 1.934,-0.398c0.583,0.377 0.275,0.271 7.192,4.853c1.698,1.125 1.704,1.122 1.853,1.04c2.731,-1.509 1.245,-2.751 3.781,-4.152c1.261,1.212 2.521,2.423 3.782,3.635c0.626,2.603 1.252,5.206 1.878,7.809l-3.646,-1.138c-1.197,-0.226 -1.553,-2.18 -2.75,-2.406c-0.022,-0.004 -2.183,1.998 -5.202,0.622c-8.484,-3.866 -8.231,-4.042 -16.764,-7.693l1.784,-2.789Z" style="fill:#bdb4a0;"/><path d="M141.292,394.937c3.326,7.469 3.836,6.862 8.662,13.203c-1.69,0.782 -3.106,6.866 -17.087,-4.499c2.85,-4.26 3.065,-3.742 8.425,-8.705Z" style="fill:#d7d0bf;"/><path d="M1473.206,952.371c4.85,9.013 4.594,8.889 10.235,17.14c2.024,2.961 2.065,2.819 2.219,3.081c6.13,10.398 -8.809,2.996 -10.228,-6.014c-1.07,-6.796 -6.822,-8.606 -5.689,-10.901c0.707,-1.431 2.757,-1.875 3.463,-3.306Z" style="fill:#a49e8d;"/><path d="M710.562,883.095c0.399,3.046 2.661,1.83 3.063,4.901c0.035,0.267 0.154,1.173 -2.073,2.659c-5.314,3.547 -11.126,4.494 -12.154,4.661c-0.619,-1.07 -1.237,-2.14 -1.856,-3.21c-2.016,-1.017 -4.032,-2.033 -6.047,-3.05c6.356,-1.987 12.712,-3.974 19.068,-5.961Z" style="fill:#53463b;"/><path d="M694.37,985.897c-2.754,1.338 -11.082,6.329 -24.862,4.784c22.345,-15.697 24.407,-6.758 24.862,-4.784Z" style="fill:#9a9383;"/><path d="M1865.151,846.252c11.042,11.729 11.839,11.567 11.368,13.141c-0.532,1.776 -3.227,2.324 -3.759,4.1c-16.224,-9.54 -9.386,-14.938 -7.609,-17.241Z" style="fill:#938c7d;"/><path d="M1878.56,546.384c-1.645,4.122 -1.26,4.003 -1.434,8.329c-6.365,4.226 -5.845,5.955 -13.611,5.316c0.76,-1.462 8.693,-16.721 13.237,-15.782c0.914,0.189 0.894,1.949 1.808,2.138Z" style="fill:#9e988a;"/><path d="M698.891,1108.945c4.016,8.037 0.07,8.471 0.932,17.324c-1.12,1.602 -2.24,3.205 -3.361,4.807c-0.564,-1.002 -2.641,-4.69 -5.083,-13.44c3.592,-4.586 3.534,-4.354 7.512,-8.691Z" style="fill:#b0aa9f;"/><path d="M1786.335,1159.059c4.382,8.729 7.538,9.67 1.374,17.192c-7.074,-9.011 -11.822,-12.619 -1.374,-17.192Z" style="fill:#9d9589;"/><path d="M1754.534,1212.288c1.476,0.385 2.925,-1.639 4.401,-1.254c1.119,0.292 12.342,16.882 13.361,18.388l-3.737,2.008c-7.742,-9.342 -7.502,-9.149 -14.026,-19.142Z" style="fill:#6d655a;"/><path d="M565.088,382.649c0.971,1.636 -1.224,3.028 3.304,5.565c4.67,2.617 4.634,2.3 5.732,3.51c11.7,12.896 -16.109,-4.259 -17.338,-5.017c3.636,-3.221 3.429,-3.705 8.302,-4.057Z" style="fill:#7d756c;"/><path d="M2190.267,381.295c-11.096,4.216 -15.072,4.747 -16.433,4.928c2.354,-2.845 38.152,-28.588 16.433,-4.928Z" style="fill:#bdb4a6;"/><path d="M691.379,1117.636c2.442,8.75 4.519,12.438 5.083,13.44c-2.413,2.106 -2.164,2.045 -2.413,2.106c-13.183,3.188 -3.287,-14.445 -2.67,-15.545Z" style="fill:#e7e1d2;"/><path d="M798.924,779.343c1.218,-0.561 20.048,-9.236 16.587,-2.392c-1.376,2.72 -15.627,7.294 -17.054,7.753c0.156,-1.787 0.312,-3.574 0.468,-5.36Z" style="fill:#e9e4d2;"/><path d="M2120.103,877.854c0.649,-0.348 -0.302,-1.833 0.346,-2.18c1.806,-0.968 8.519,0.902 9.235,1.102c2.666,0.743 5.239,1.797 7.905,2.54c0.205,1.767 0.411,3.533 0.616,5.3c-1.476,-0.306 -4.977,0.787 -18.103,-6.761Z" style="fill:#dbd6c7;"/><path d="M595.246,634.446c11.638,-0.921 12.787,-0.755 13.887,-0.595c53.137,7.703 -10.324,5.265 -11.314,5.166c-0.91,-2.753 -0.764,-2.541 -2.573,-4.571Z" style="fill:#ddd6c4;"/><path d="M251.578,612.732c4.673,3.886 4.837,3.716 5.047,4.197c0.519,1.186 0.137,2.805 -16.011,2.348c5.063,-4.023 4.934,-4.004 10.963,-6.546Z" style="fill:#9b9288;"/><path d="M2666.297,194.051c-3.81,6.787 -4.666,8.542 -11.58,4.97c4.819,-4.962 4.72,-6.124 11.58,-4.97Z" style="fill:#90877f;"/><path d="M2404.857,323.27c0.79,-0.566 9.142,-6.555 10.888,-5.391c4.778,3.188 -8.302,9.294 -9.277,9.75c0.173,-2.542 0.176,-2.404 -1.61,-4.359Z" style="fill:#e0d9c8;"/><path d="M2081.277,579.958c0.048,4.702 0.13,4.679 0.052,5.078c-0.229,1.163 -1.168,0.301 -1.379,1.374c-7.602,1.08 -7.073,-1.113 -10.539,-4.293c5.632,-1.538 10.906,-2.063 11.866,-2.159Z" style="fill:#d2c6b6;"/><path d="M2026.034,775.667c1.25,0.05 2.501,0.099 3.751,0.149c1.699,6.142 1.782,6.085 1.835,6.633c0.125,1.291 -1.313,2.414 -1.188,3.705c-7.031,-4.081 -9.487,-3.208 -7.958,-6.476c0.758,-1.619 2.802,-2.392 3.56,-4.011Z" style="fill:#c3baa5;"/><path d="M2091.424,864.567c4.188,1.201 3.951,1.393 11.686,4.805c-2.536,1.401 -1.05,2.643 -3.781,4.152c-0.149,0.082 -0.154,0.085 -1.853,-1.04c-6.916,-4.583 -6.609,-4.477 -7.192,-4.853l1.139,-3.063Z" style="fill:#ede6d2;"/><path d="M581.305,570.475c7.721,3.948 7.384,4.163 8.071,4.428l-0.017,4.204c-5.479,-0.513 -5.304,-0.622 -10.484,-2.928c1.229,-4.605 1.189,-4.585 1.327,-4.973c0.148,-0.415 0.954,-0.316 1.102,-0.731Z" style="fill:#b7ad9e;"/><path d="M2078.792,862.894c2.136,-0.488 2.176,-1.652 12.632,1.673l-1.139,3.063c-1.085,-0.066 -0.89,0.461 -1.934,0.398c-0.494,-0.03 -0.456,-0.046 -6.159,-0.616c-1.133,-1.506 -2.266,-3.012 -3.4,-4.518Z" style="fill:#e9e4d3;"/><path d="M1057.44,686.118c4.614,12.363 -3.12,9.583 -3.421,8.884c-0.207,-0.482 0.255,-0.554 -1.987,-6.244c0.806,-0.325 1.616,1.29 2.422,0.965c0.347,-0.14 0.221,-0.267 2.986,-3.605Z" style="fill:#a39c91;"/><path d="M2283.88,361.594l-0.172,2.808c-2.315,2.018 -1.865,2.242 -4.481,3.905c-5.015,3.189 -5.651,-1.135 -6.667,-1.709c5.489,-2.902 5.411,-2.607 11.32,-5.004Z" style="fill:#bfb4a5;"/><path d="M2023.88,769.597c6.565,-0.981 6.919,1.128 5.905,6.219c-1.25,-0.05 -2.501,-0.099 -3.751,-0.149c-3.207,-2.14 -2.606,-2.568 -2.154,-6.07Z" style="fill:#251e14;"/><path d="M1139.179,744.178c0.974,0.566 2.404,-0.673 3.377,-0.107c0.443,0.258 6.61,9.083 5.242,10.526c-0.661,0.697 -2.147,-0.056 -2.808,0.64c-1.937,-3.686 -3.874,-7.373 -5.811,-11.059Z" style="fill:#c2bcb3;"/><path d="M1364.393,966.301c0.21,1.709 3.522,1.862 3.732,3.571c0.027,0.221 -5.409,9.021 -7.043,7.188c-2.498,-2.801 -0.246,-2.918 3.311,-10.759Z" style="fill:#cbc3b1;"/><path d="M2137.59,879.315c1.133,0.259 1.538,1.983 2.671,2.242c0.691,0.158 0.653,0.067 8.813,0.91c-0.826,1.392 -1.653,2.784 -2.479,4.176c-4.148,-1.343 -3.834,-1.43 -8.389,-2.028c-0.205,-1.767 -0.411,-3.533 -0.616,-5.3Z" style="fill:#b1aa9e;"/><path d="M738.598,574.627c-0.901,1.262 -1.802,2.525 -2.704,3.787l-11.262,-2.432c5.047,-2.323 4.977,-2.587 5.45,-2.509c4.317,0.712 4.161,0.435 8.515,1.153Z" style="fill:#b1a89d;"/><path d="M2283.88,361.594c0.572,-0.11 7.145,-1.379 7.145,-1.379c3.581,2.982 -0.678,2.429 -4.4,4.979l-2.918,-0.791l0.172,-2.808Z" style="fill:#ded7c6;"/><path d="M2078.792,862.894c1.133,1.506 2.266,3.012 3.4,4.518l-1.784,2.789l-5.532,-2.579c1.305,-1.576 2.611,-3.151 3.916,-4.727Z" style="fill:#8d8372;"/><path d="M2121.548,496.391c-6.854,5.335 -6.661,5.936 -8.174,5.384c-7.978,-2.91 7.4,-5.266 8.174,-5.384Z" style="fill:#a59e96;"/><path d="M1973.537,893.255c-1.739,-0.28 -0.878,1.798 -2.582,1.523c-0.317,-0.051 -1.76,-0.284 -3.173,-2.45c-5.017,-7.697 7.564,0.005 8.118,0.344l-2.364,0.583Z" style="fill:#beb49d;"/><path d="M1935.857,1004.156c1.545,1.018 3.091,2.037 4.636,3.055l-1.295,3.583c-0.885,-0.544 -0.97,0.087 -1.787,-0.415c-5.624,-3.458 -1.22,-4.885 -1.554,-6.222Z" style="fill:#ded8c8;"/><path d="M746.643,866.72c0.23,0.04 2.692,-1.962 5.454,0.938c1.409,1.48 1.309,1.348 2.784,2.868c-1.035,-0.021 -1.815,1.256 -2.85,1.235c-0.59,-0.012 -0.391,-0.366 -5.388,-5.041Z" style="fill:#97897b;"/><path d="M2314.602,483.206l1.423,3.525c-1.121,0.425 -0.716,0.747 -1.873,1.186c-4.821,1.828 -4.265,-1.669 -5.037,-1.971l5.487,-2.74Z" style="fill:#c9bfb4;"/><path d="M884.725,1257.837c0.698,2.089 1.397,4.177 2.095,6.266c-4.074,-0.583 -3.866,-0.5 -7.821,-1.583c7.386,-2.652 5.541,-4.477 5.726,-4.683Z" style="fill:#aba399;"/><path d="M1878.56,546.384c0.539,2.016 1.077,4.032 1.616,6.047c-1.016,0.761 -2.033,1.521 -3.049,2.282c0.174,-4.326 -0.212,-4.207 1.434,-8.329Z" style="fill:#e1dcc9;"/><path d="M637.011,468.559c0.487,0.488 1.395,0.369 1.881,0.857c0.231,0.231 3.722,3.729 -2.268,3.394c-1.144,-0.064 -1.869,-1.59 -3.013,-1.653l3.399,-2.597Z" style="fill:#b9b3a9;"/><path d="M294.254,482.902l-1.558,3.186c-0.838,-1.225 -3.4,-0.139 -4.238,-1.364c-2.909,-4.251 5.327,-1.953 5.795,-1.822Z" style="fill:#c5c0b9;"/><path d="M574.793,770.764l1.32,3.473l-5.816,0.605c1.79,-2.346 1.043,-2.943 4.495,-4.078Z" style="fill:#ada79f;"/><path d="M2198.935,546.392c0.813,1.282 1.625,2.565 2.438,3.847c-0.388,0.019 -4.851,0.241 -4.851,0.241c-2.898,-1.92 -0.477,-2.343 2.413,-4.089Z" style="fill:#cac4b8;"/><path d="M2143.704,981.303c-0.042,1.532 -0.084,3.065 -0.125,4.597c-4.632,-4.588 -5.352,-4.514 -4.982,-4.935c0,0 4.699,0.311 5.108,0.338Z" style="fill:#8f867b;"/><path d="M2451.34,584.146l3.067,2.819c-1.793,0.115 -0.871,1.639 -2.782,1.761c-3.083,0.198 -0.097,-1.564 -0.285,-4.581Z" style="fill:#c7beab;"/><path d="M1067.047,1178.908l3.552,1.569l-1.93,1.95c-0.674,-0.34 -1.543,0.8 -2.217,0.46c0,0 0.547,-3.661 0.594,-3.979Z" style="fill:#d2cbbe;"/><path d="M801.547,444.426c1.943,-2.104 1.246,-5.391 2.723,-2.949c1.054,1.743 -1.13,1.935 -0.061,3.702l-2.662,-0.753Z" style="fill:#b2aca0;"/></svg>